<?xml version="1.0" encoding="UTF-8"?>
<!DOCTYPE svg PUBLIC "-//W3C//DTD SVG 1.1//EN" "http://www.w3.org/Graphics/SVG/1.1/DTD/svg11.dtd">
<!-- Creator: CorelDRAW 2020 -->
<svg xmlns="http://www.w3.org/2000/svg" xml:space="preserve" width="84.6667mm" height="84.6667mm" version="1.1" style="shape-rendering:geometricPrecision; text-rendering:geometricPrecision; image-rendering:optimizeQuality; fill-rule:evenodd; clip-rule:evenodd"
viewBox="0 0 369.28 369.28"
 xmlns:xlink="http://www.w3.org/1999/xlink"
 xmlns:xodm="http://www.corel.com/coreldraw/odm/2003">
 <defs>
  <style type="text/css">
   <![CDATA[
    .fil0 {fill:none}
    .fil3 {fill:#FEFEFE}
    .fil1 {fill:black}
    .fil2 {fill:#F90A10}
   ]]>
  </style>
 </defs>
 <g id="Layer_x0020_1">
  <metadata id="CorelCorpID_0Corel-Layer"/>
  <g id="_-2127693304">
   <rect class="fil0" x="-0" y="-0" width="369.28" height="369.28"/>
   <g>
    <path class="fil1" d="M4.34 355.78l0 9.16 28.17 0c0.7,-22.54 4.93,-44.37 13.38,-62.68 16.9,-35.21 40.85,-59.16 76.06,-76.06 37.33,-17.61 88.04,-17.61 125.36,0 19.72,9.86 31.69,18.31 44.37,31.69 13.38,12.68 21.83,24.65 31.69,44.37 8.45,18.31 12.68,40.14 13.38,62.68l28.17 0 0 -9.16c-0.7,-2.11 -1.41,-13.38 -2.11,-16.9 -0.7,-4.93 -1.41,-9.16 -2.82,-14.09 -2.11,-9.86 -4.93,-18.31 -7.75,-27.47 -8.45,-21.13 -26.06,-47.19 -42.96,-62.68 -11.27,-10.56 -26.76,-21.83 -40.85,-29.58l-24.65 -10.56c1.41,-1.41 9.16,-7.04 11.97,-9.16 10.56,-12.68 16.9,-16.2 25.35,-37.33 17.61,-43.67 3.52,-92.97 -31.69,-120.43 -11.97,-10.56 -26.06,-16.9 -42.26,-21.13 -4.93,-0.7 -14.79,-1.41 -18.31,-2.11l-8.45 0c-3.52,0.7 -14.09,1.41 -18.31,2.82 -16.9,3.52 -29.58,9.86 -42.26,20.42 -35.21,27.47 -49.3,76.77 -31.69,120.43 4.23,10.56 9.86,19.02 16.2,26.06l21.13 20.42 -25.35 10.56c-36.62,19.72 -68.32,54.23 -83.11,92.97 -12.68,33.1 -11.27,53.53 -12.68,57.75zm171.85 -322.57c-41.55,4.93 -71.84,41.55 -66.91,83.81 4.23,38.74 39.44,72.54 83.81,66.91 38.74,-4.23 72.54,-39.44 66.91,-83.81 -2.82,-23.24 -11.97,-35.92 -26.76,-49.3 -11.27,-11.27 -34.51,-20.42 -57.05,-17.61z"/>
   </g>
   <path class="fil2" d="M251.68 248.58c-0.14,6.58 0,13.16 0,19.75 0,6.72 0,13.3 0,20.02 0,13.71 0.96,20.3 7.95,31.95 1.65,2.88 4.94,7.54 7.27,10.01 0.27,0.27 0.27,0.41 0.55,0.69 0.27,0.27 0.41,0.41 0.69,0.69 1.37,1.51 5.62,5.76 7.68,7.27 7.54,5.9 12.89,9.19 22.22,12.89 2.47,0.96 5.07,2.19 8.09,2.06 8.91,-1.78 20.84,-8.64 27.7,-14.26 2.74,-2.19 5.21,-4.39 7.41,-6.72 0.55,-0.69 1.1,-1.23 1.65,-1.78 0.27,-0.41 0.55,-0.55 0.82,-0.96 0.27,-0.41 0.41,-0.55 0.82,-0.96 5.62,-6.31 10.15,-14.54 12.48,-22.63 1.1,-3.98 1.51,-7.95 1.78,-12.2 0.14,-4.53 0,-9.05 0,-13.58l0 -33.6c0,-2.19 0.41,-4.53 -1.65,-5.21 -0.96,-0.27 -4.66,-0.27 -6.17,-0.41 -12.34,-0.96 -24.82,-5.49 -34.28,-12.75 -2.33,-1.92 -3.29,-2.88 -5.21,-4.94 -2.88,-3.02 -4.53,-6.72 -6.45,-6.58l-2.19 1.78c-3.98,5.76 -7.68,9.05 -13.85,13.03 -5.21,3.29 -12.07,6.17 -19.06,7.82 -18.51,4.25 -18.1,-1.78 -18.24,8.64z"/>
   <path class="fil3" d="M282.72 304.81c-2.18,-3.63 -3.87,-7.99 -6.05,-11.87 -3.15,-5.57 -9.93,-2.18 -7.75,3.39 0.73,1.94 1.94,4.36 2.91,6.05 0.97,1.94 1.94,3.87 2.91,6.05 1.94,3.63 4.12,10.41 9.44,6.3 2.18,-1.69 37.29,-37.53 40.44,-40.44l4.6 -4.36c2.18,-2.42 7.75,-7.27 7.99,-9.93 0,-2.42 -2.18,-4.6 -4.6,-4.36 -2.18,0.24 -4.36,2.66 -5.33,3.63 -2.91,3.15 -5.81,6.05 -8.96,9.2 -6.05,6.05 -11.87,11.87 -17.92,17.92l-13.56 13.32c-0.73,0.97 -1.45,1.69 -2.18,2.42 -0.73,0.73 -1.21,1.94 -1.94,2.66z"/>
  </g>
 </g>
</svg>
