<?xml version="1.0" encoding="UTF-8"?>
<!DOCTYPE svg PUBLIC "-//W3C//DTD SVG 1.1//EN" "http://www.w3.org/Graphics/SVG/1.1/DTD/svg11.dtd">
<!-- Creator: CorelDRAW 2020 -->
<svg xmlns="http://www.w3.org/2000/svg" xml:space="preserve" width="84.6667mm" height="84.6667mm" version="1.1" style="shape-rendering:geometricPrecision; text-rendering:geometricPrecision; image-rendering:optimizeQuality; fill-rule:evenodd; clip-rule:evenodd"
viewBox="0 0 4102.13 4102.13"
 xmlns:xlink="http://www.w3.org/1999/xlink"
 xmlns:xodm="http://www.corel.com/coreldraw/odm/2003">
 <defs>
  <style type="text/css">
   <![CDATA[
    .fil0 {fill:none}
    .fil1 {fill:black;fill-rule:nonzero}
   ]]>
  </style>
 </defs>
 <g id="Layer_x0020_1">
  <metadata id="CorelCorpID_0Corel-Layer"/>
  <g id="_1277603016">
   <g>
    <rect class="fil0" x="-0" y="-0" width="4102.13" height="4102.13"/>
   </g>
   <g>
    <polygon id="XMLID_9_" class="fil1" points="1907.38,80.53 2237.37,80.53 2237.37,155.48 2978.85,155.48 3215.24,372.37 3624.75,372.37 3700.51,799.96 2050.89,799.96 401.61,799.96 454.27,372.37 938.55,372.37 1175.62,155.48 1907.38,155.48 "/>
    <path id="XMLID_9__0" class="fil1" d="M814.53 3594.39c14.96,236.99 211.56,427.21 429.24,427.21 269.04,0 538.42,0 807.8,0 269.38,0 538.76,0 807.8,0 223.12,0 414.62,-196.01 428.9,-427.21 26.87,-429.52 53.4,-859.05 80.27,-1288.58 26.87,-429.53 53.74,-859.05 80.27,-1288.58 -465.98,0 -931.95,0 -1397.92,0 -465.98,0 -931.95,0 -1397.92,0 26.87,429.53 53.57,859.06 80.61,1288.58 27.04,429.53 53.74,859.05 80.95,1288.58z"/>
   </g>
  </g>
 </g>
</svg>
