<?xml version="1.0" standalone="no"?>
<!DOCTYPE svg PUBLIC "-//W3C//DTD SVG 1.1//EN" "http://www.w3.org/Graphics/SVG/1.1/DTD/svg11.dtd" >
<svg xmlns="http://www.w3.org/2000/svg" xmlns:xlink="http://www.w3.org/1999/xlink" version="1.1">
<metadata>
Created by FontForge 20190801 at Sun Sep 15 23:02:16 2019
 By www-data
BOWIE (c) typeline2018. All Rights Reserved
</metadata>
<defs>
<font id="BOOWIE" horiz-adv-x="1000" >
  <font-face 
    font-family="BOOWIE"
    font-weight="400"
    font-stretch="normal"
    units-per-em="1000"
    panose-1="2 0 5 0 0 0 0 0 0 0"
    ascent="800"
    descent="-200"
    x-height="692"
    cap-height="694"
    bbox="-63 -272.95 1196 832"
    underline-thickness="50"
    underline-position="-100"
    unicode-range="U+0020-E003"
  />
<missing-glyph horiz-adv-x="500" 
 />
    <glyph glyph-name="OO" unicode="OO" horiz-adv-x="1236" 
d="M362 721q69 0 129 -24t108 -66q48 42 108 66t129 24q75 0 140.5 -28.5t114 -77t77 -114t28.5 -140.5t-28.5 -140.5t-77 -114t-114 -77t-140.5 -28.5q-69 0 -129 23.5t-108 65.5q-48 -42 -108 -65.5t-129 -23.5q-75 0 -140.5 28.5t-114 77t-77 114t-28.5 140.5t28.5 140.5
t77 114t114 77t140.5 28.5zM629 602q44 -48 68.5 -110t24.5 -131q0 -70 -24.5 -131.5t-68.5 -109.5q41 -42 94 -66.5t113 -24.5q63 0 117.5 26t95.5 71t64.5 105.5t23.5 129.5t-23.5 129.5t-64.5 105.5t-95.5 71t-117.5 26q-60 0 -113 -24.5t-94 -66.5zM569 120
q-44 48 -68.5 109.5t-24.5 131.5q0 69 24.5 131t68.5 110q-41 42 -94 66.5t-113 24.5q-62 0 -117 -26t-96 -71t-64.5 -105.5t-23.5 -129.5t23.5 -129.5t64.5 -105.5t96 -71t117 -26q60 0 113 24.5t94 66.5zM599 157q30 42 47 94t17 110t-17 110t-47 94q-30 -42 -46.5 -94
t-16.5 -110t16.5 -110t46.5 -94z" />
    <glyph glyph-name="GO" unicode="GO" horiz-adv-x="1268" 
d="M817 724q74 0 139.5 -28.5t114.5 -77.5t77.5 -114.5t28.5 -139.5q0 -75 -28.5 -140.5t-77.5 -114t-114.5 -77t-139.5 -28.5q-69 0 -129 23.5t-108 65.5q-48 -42 -108 -65.5t-128 -23.5q-75 0 -140.5 28.5t-114 77t-77 114t-28.5 140.5q0 74 28.5 139.5t77 114.5t114 77.5
t140.5 28.5q68 0 128 -23.5t108 -65.5q48 42 108 65.5t129 23.5zM550 122q-41 45 -65 101.5t-28 121.5h-113v28h113q2 67 26.5 126t66.5 106q-41 42 -93.5 66t-112.5 24q-63 0 -117.5 -26t-95.5 -71t-64.5 -105t-23.5 -129t23.5 -129.5t64.5 -105.5t95.5 -71t117.5 -26
q60 0 112.5 24t93.5 66zM580 159q28 39 44.5 86t19.5 100h-128q3 -53 19.5 -100t44.5 -86zM516 373h128h49h10v-9q0 -70 -24.5 -132t-68.5 -110q41 -42 94 -66t113 -24q62 0 117 26t96 71t64.5 105.5t23.5 129.5t-23.5 129t-64.5 105t-96 71t-117 26t-116 -25t-94.5 -68.5
t-64.5 -102.5t-26 -126z" />
    <glyph glyph-name=".notdef" horiz-adv-x="500" 
 />
    <glyph glyph-name=".null" horiz-adv-x="0" 
 />
    <glyph glyph-name="nonmarkingreturn" horiz-adv-x="508" 
 />
    <glyph glyph-name="space" unicode=" " horiz-adv-x="400" 
 />
    <glyph glyph-name="space" unicode="&#xa0;" horiz-adv-x="400" 
 />
    <glyph glyph-name="exclam" unicode="!" horiz-adv-x="185" 
d="M42 660h69l-26 -565h-19zM77 44q17 0 29.5 -12.5t12.5 -29.5q0 -18 -12.5 -30.5t-29.5 -12.5q-18 0 -30.5 12.5t-12.5 30.5q0 17 12.5 29.5t30.5 12.5z" />
    <glyph glyph-name="quotedbl" unicode="&#x22;" horiz-adv-x="208" 
d="M12 787h45l39 -87h-18l-66 87v0zM69 787h45l40 -87h-19l-66 87v0z" />
    <glyph glyph-name="numbersign" unicode="#" horiz-adv-x="558" 
d="M411 696h27l-32 -219h111v-37h-117l-26 -174h117v-36h-122l-34 -228h-28l34 228h-197l-34 -228h-28l35 228h-116v36h121l26 174h-121v37h126l33 219h28l-33 -219h197l33 219v0zM347 266l26 174h-197l-26 -174h197v0z" />
    <glyph glyph-name="dollar" unicode="$" horiz-adv-x="524" 
d="M332 597q-2 9 -10.5 22.5t-23.5 26.5t-35.5 22.5t-46.5 9.5v-229l25.5 -17t29.5 -19q54 -31 85 -72t42 -85t3 -87t-32 -77t-63 -55.5t-90 -23.5v-60h-28v61q-23 2 -49 11.5t-51.5 27.5t-48.5 45t-39 66h30q0 -5 10.5 -23t31 -39t49.5 -39t67 -21v338q-22 14 -42 28
t-37 29.5t-30.5 33.5t-21.5 42q-12 34 -5.5 66.5t25.5 59.5t48 44.5t63 21.5v61h28v-60q39 -2 74.5 -21.5t52.5 -57.5l1 -30h-12zM188 675q-20 -4 -34.5 -14t-25 -22.5t-15.5 -27t-5 -27.5q0 -12 2.5 -23.5t11 -25t24 -29.5t42.5 -37v206zM216 41q49 3 80 32t41 70t-4 87
t-56 84q-15 14 -30.5 25.5t-30.5 22.5v-321z" />
    <glyph glyph-name="percent" unicode="%" horiz-adv-x="746" 
d="M543 680h28l-459 -693h-28zM143 675q29 0 54.5 -11t44.5 -30t30 -44.5t11 -54.5t-11 -54.5t-30 -44t-44.5 -29.5t-54.5 -11t-54.5 11t-44 29.5t-29.5 44t-11 54.5t11 54.5t29.5 44.5t44 30t54.5 11zM143 658q-20 0 -37.5 -9.5t-30.5 -26.5t-20.5 -39.5t-7.5 -47.5
q0 -26 7.5 -48t20.5 -38.5t30.5 -26t37.5 -9.5t38 9.5t31 26t20.5 38.5t7.5 48q0 25 -7.5 47.5t-20.5 39.5t-31 26.5t-38 9.5zM511 271q29 0 54.5 -11t44.5 -29.5t30 -44t11 -54.5t-11 -54.5t-30 -44.5t-44.5 -30t-54.5 -11t-54.5 11t-44 30t-29.5 44.5t-11 54.5t11 54.5
t29.5 44t44 29.5t54.5 11zM511 254q-20 0 -37.5 -9.5t-30.5 -26t-20.5 -39t-7.5 -47.5q0 -26 7.5 -48t20.5 -39t30.5 -26.5t37.5 -9.5t38 9.5t31 26.5t20.5 39t7.5 48q0 25 -7.5 47.5t-20.5 39t-31 26t-38 9.5z" />
    <glyph glyph-name="ampersand" unicode="&#x26;" horiz-adv-x="630" 
d="M455 -256q34 -17 72 -9.5t65 31.5q29 25 36.5 55.5t0.5 63.5t-25.5 66t-41.5 64.5t-47 59.5t-43 49q-13 -46 -43.5 -83.5t-75.5 -63.5q-38 -22 -79 -28.5t-79.5 0.5t-73 26.5t-59.5 48.5t-39 66.5t-11 80.5q3 49 17.5 84.5t37.5 64.5t54.5 54t69.5 54q-30 36 -52 71
t-23 82q-2 31 8 62.5t42 49.5q25 14 49.5 12t43.5 -15.5t31.5 -35.5t13.5 -47q2 -46 -19.5 -85.5t-56.5 -71.5q60 -66 122 -130.5t125 -130.5q-1 58 -31.5 111t-87.5 82h12q28 -16 49 -38t35.5 -48t21.5 -55t7 -58q24 -25 53 -58t55.5 -71t46.5 -77.5t25.5 -78.5t-7.5 -74
t-52 -63q-16 -11 -34.5 -19.5t-38 -12t-39.5 -2t-39 11.5zM468 130q-66 75 -137 146.5t-136 147.5q-67 -51 -108 -116t-33 -149q4 -44 24.5 -80.5t53 -61t75.5 -35t93 -3.5q31 4 58.5 18t49.5 35t37.5 46t22.5 52zM156 537q8 -13 26 -34t42 -48q35 31 51 64.5t8 79.5
q-3 16 -10 32t-18 29t-27 20t-37 5q-33 -4 -47 -20.5t-15 -38.5t7.5 -46t19.5 -43z" />
    <glyph glyph-name="quotesingle" unicode="'" horiz-adv-x="176" 
d="M12 787h45l39 -87h-18l-66 87v0z" />
    <glyph glyph-name="parenleft" unicode="(" horiz-adv-x="249" 
d="M127 776q-13 -36 -30 -90.5t-31 -124.5t-23 -153t-6 -174t20.5 -188t55.5 -195h-22q-47 99 -70.5 195.5t-28.5 186.5t4 172t26 152t39.5 125.5t43.5 93.5h22z" />
    <glyph glyph-name="parenright" unicode=")" horiz-adv-x="233" 
d="M14 776q21 -38 43.5 -93.5t40 -125.5t26.5 -152t3.5 -172t-29 -186.5t-70.5 -195.5h-22q38 98 56 195t20.5 188t-6 174t-23 153t-31.5 124.5t-30 90.5h22z" />
    <glyph glyph-name="asterisk" unicode="*" horiz-adv-x="431" 
d="M145 779h40l-11 -157l130 89l20 -34l-140 -72l139 -73l-21 -34l-128 90l11 -155h-40l10 155l-128 -87l-21 35l141 70l-139 74l21 34l126 -91l-10 156v0z" />
    <glyph glyph-name="plus" unicode="+" horiz-adv-x="588" 
d="M20 392h220v214h34v-214h219v-46h-219v-214h-34v214h-220v46v0z" />
    <glyph glyph-name="comma" unicode="," horiz-adv-x="197" 
d="M77 33h66l-106 -120h-28l68 120v0z" />
    <glyph glyph-name="hyphen" unicode="-" horiz-adv-x="570" 
d="M40 387h474v-49h-474v49v0z" />
    <glyph glyph-name="hyphen" unicode="&#xad;" horiz-adv-x="570" 
d="M40 387h474v-49h-474v49v0z" />
    <glyph glyph-name="period" unicode="." horiz-adv-x="216" 
d="M66 44q17 0 29.5 -12.5t12.5 -29.5q0 -18 -12.5 -30.5t-29.5 -12.5q-18 0 -30.5 12.5t-12.5 30.5q0 17 12.5 29.5t30.5 12.5z" />
    <glyph glyph-name="slash" unicode="/" horiz-adv-x="237" 
d="M208 660h28l-201 -693h-28l201 693v0z" />
    <glyph glyph-name="zero" unicode="0" horiz-adv-x="701" 
d="M328 696q67 0 126.5 -27t104 -74.5t70 -110.5t25.5 -135t-25.5 -135t-70 -110.5t-104 -74.5t-126.5 -27q-68 0 -127 27t-103.5 74.5t-70 110.5t-25.5 135t25.5 135t70 110.5t103.5 74.5t127 27zM328 673q-50 0 -94 -25.5t-77 -69.5t-52 -103t-19 -126t19 -126t52 -103
t77 -69.5t94 -25.5t94 25.5t77 69.5t52 103t19 126t-19 126t-52 103t-77 69.5t-94 25.5z" />
    <glyph glyph-name="one" unicode="1" horiz-adv-x="276" 
d="M91 691h69v-693h-69v649l-55 -65h-37z" />
    <glyph glyph-name="two" unicode="2" horiz-adv-x="575" 
d="M53 584q7 17 25 36.5t46 36t67 27.5t90 11q50 0 97 -23.5t77.5 -65t37.5 -99t-23 -125.5q-15 -35 -42.5 -70.5t-62.5 -69.5t-74 -65.5t-77 -59t-72.5 -50t-59.5 -37.5h417v-28h-465h-17h-17v16q1 1 4 3q2 2 5 3.5t8 5.5q16 11 50 36t98 76q52 41 98 84t80.5 87t54 87.5
t19.5 85.5q0 39 -13.5 71t-36.5 55.5t-55 36.5t-69 13q-33 0 -61 -10.5t-48.5 -24t-32.5 -26.5t-14 -19l-34 2v0z" />
    <glyph glyph-name="three" unicode="3" horiz-adv-x="475" 
d="M212 691q44 0 83 -13t68 -35.5t45.5 -53t16.5 -64.5q0 -27 -10.5 -51.5t-29.5 -45t-45 -35.5t-57 -24q63 -20 102.5 -68.5t39.5 -111.5q0 -39 -16.5 -74t-45.5 -61t-68 -41t-83 -15q-39 0 -74 12t-63 33t-47 50t-25 63h26q6 -29 20.5 -53.5t35.5 -42.5t49 -28.5t61 -10.5
t61.5 13.5t50.5 36t34.5 53t12.5 65.5q0 34 -11.5 64.5t-32.5 53t-50 36t-63 13.5h-1h-1h-2h-28v24h30q35 0 65.5 11.5t53.5 31t36.5 46t13.5 56.5t-13.5 57t-36.5 46.5t-53.5 31t-65.5 11.5q-54 0 -96 -25.5t-61 -65.5h-26q11 24 30.5 44.5t46 35.5t57.5 23t66 8z" />
    <glyph glyph-name="four" unicode="4" horiz-adv-x="578" 
d="M64 220h361v429l-361 -429v0zM494 220h65v-29h-65v-192h-69v192h-385h-8h-29l422 502h37h32v-473v0z" />
    <glyph glyph-name="five" unicode="5" horiz-adv-x="531" 
d="M94 451q29 15 63 23.5t70 8.5q56 0 105 -19t85.5 -52t57.5 -77t21 -94t-21 -94t-57.5 -77t-85.5 -52t-105 -19q-68 0 -125 27.5t-94 73.5h37q15 -16 29.5 -28.5t32.5 -21.5t42.5 -13.5t60.5 -4.5q35 0 73.5 16.5t70 45t52 66.5t20.5 81t-22 81.5t-54.5 66.5t-70.5 44.5
t-69 16.5q-32 0 -50 -2t-29.5 -6.5t-20.5 -10.5t-22 -14l-5 -29h-70l55 304h390v-28h-326z" />
    <glyph glyph-name="six" unicode="6" horiz-adv-x="617" 
d="M295 505q56 0 105 -19.5t85.5 -53.5t57.5 -80t21 -98t-21 -98t-57.5 -80t-85.5 -54t-105 -20q-70 0 -129 31h-1q-8 4 -14.5 8t-13.5 9q-33 22 -60.5 51t-46 65.5t-26.5 81.5t-3 98q5 59 37.5 120.5t84 112t117.5 83t138 32.5q57 0 107 -18v-34q-61 29 -122 20
t-113.5 -42.5t-93 -85.5t-59.5 -110q37 38 88 59.5t110 21.5zM295 483q-39 0 -75.5 -18.5t-64 -50t-44 -73t-16.5 -87.5q0 -47 16.5 -88.5t44 -73t64 -50t75.5 -18.5t75 18.5t64 50t44.5 73t16.5 88.5q0 46 -16.5 87.5t-44.5 73t-64 50t-75 18.5z" />
    <glyph glyph-name="seven" unicode="7" horiz-adv-x="427" 
d="M404 692l-220 -693h-73l212 665h-318l7 28h320h64h8v0z" />
    <glyph glyph-name="eight" unicode="8" horiz-adv-x="540" 
d="M255 691q44 0 82.5 -12.5t67.5 -33.5t45.5 -49t16.5 -60q0 -51 -38.5 -89.5t-98.5 -55.5q37 -10 69 -28.5t55 -43.5t36 -55.5t13 -64.5q0 -41 -19.5 -77.5t-53 -63.5t-79 -43t-96.5 -16t-96.5 16t-79 43t-53 63.5t-19.5 77.5q0 34 13 64.5t36 55.5t54.5 43.5t69.5 28.5
q-60 17 -99 55.5t-39 89.5q0 32 16.5 60t45.5 49t68 33.5t83 12.5zM255 375q-37 0 -69 -14t-56 -38t-38 -56t-14 -68t14 -68t38 -55.5t56 -37.5t69 -14t69 14t56 37.5t38 55.5t14 68t-14 68t-38 56t-56 38t-69 14zM255 672q-32 0 -60.5 -10.5t-49.5 -29t-33 -43.5t-12 -53
t12 -53t33 -43.5t49.5 -29t60.5 -10.5t60 10.5t49 29t33.5 43.5t12.5 53t-12.5 53t-33.5 43.5t-49 29t-60 10.5z" />
    <glyph glyph-name="nine" unicode="9" horiz-adv-x="611" 
d="M274 191q-56 0 -105 19.5t-85.5 53.5t-57.5 80t-21 98t21 98t57.5 80t85.5 54t105 20q35 0 67.5 -8.5t61.5 -22.5l1 -1q16 -8 28 -16q33 -22 60.5 -51t46 -66t26.5 -81.5t3 -97.5q-5 -59 -37.5 -120.5t-84 -112t-117.5 -83t-138 -32.5q-58 0 -107 18v34q61 -29 122 -20.5
t113.5 42.5t92.5 86t60 110q-37 -38 -87.5 -59.5t-110.5 -21.5zM274 213q39 0 75.5 18.5t64.5 50t44.5 73t16.5 87.5t-16.5 88t-44.5 73.5t-64.5 50t-75.5 18.5t-75 -18.5t-64 -50t-44.5 -73.5t-16.5 -88t16.5 -87.5t44.5 -73t64 -50t75 -18.5z" />
    <glyph glyph-name="colon" unicode=":" horiz-adv-x="216" 
d="M66 94q17 0 29.5 -12.5t12.5 -29.5q0 -18 -12.5 -30.5t-29.5 -12.5q-18 0 -30.5 12.5t-12.5 30.5q0 17 12.5 29.5t30.5 12.5zM63 353q18 0 30.5 -12.5t12.5 -30.5q0 -17 -12.5 -29.5t-30.5 -12.5q-17 0 -29.5 12.5t-12.5 29.5q0 18 12.5 30.5t29.5 12.5z" />
    <glyph glyph-name="semicolon" unicode=";" horiz-adv-x="190" 
d="M64 353q17 0 30 -12.5t13 -30.5q0 -17 -13 -29.5t-30 -12.5q-18 0 -30.5 12.5t-12.5 29.5q0 18 12.5 30.5t30.5 12.5zM77 33h66l-106 -120h-28z" />
    <glyph glyph-name="semicolon" unicode="&#x37e;" horiz-adv-x="190" 
d="M64 353q17 0 30 -12.5t13 -30.5q0 -17 -13 -29.5t-30 -12.5q-18 0 -30.5 12.5t-12.5 29.5q0 18 12.5 30.5t30.5 12.5zM77 33h66l-106 -120h-28z" />
    <glyph glyph-name="less" unicode="&#x3c;" 
 />
    <glyph glyph-name="equal" unicode="=" horiz-adv-x="570" 
d="M38 479h474v-49h-474v49v0zM38 298h474v-48h-474v48v0z" />
    <glyph glyph-name="greater" unicode="&#x3e;" 
 />
    <glyph glyph-name="question" unicode="?" horiz-adv-x="498" 
d="M220 53q18 0 30.5 -13t12.5 -30q0 -18 -12.5 -30.5t-30.5 -12.5t-30.5 12.5t-12.5 30.5q0 17 12.5 30t30.5 13zM0 462q0 67 25.5 112t64.5 68.5t85.5 27.5t88 -9.5t72.5 -43.5t39.5 -74t-12 -102t-81.5 -127q-24 -26 -35 -51t-15 -51.5t-3.5 -56.5t0.5 -66h-25
q1 36 -1 67t-0.5 60t11 59t34.5 64q30 36 47.5 68.5t25.5 60.5q14 54 -2.5 92t-50 58.5t-76.5 22.5t-81 -16.5t-64.5 -59t-26.5 -103.5h-20z" />
    <glyph glyph-name="at" unicode="@" 
 />
    <glyph glyph-name="A" unicode="A" horiz-adv-x="659" 
d="M583 1h-74q-59 151 -117 300t-116 300l-246 -600h-30l283 693h31q67 -174 134 -346.5t135 -346.5z" />
    <glyph glyph-name="B" unicode="B" horiz-adv-x="552" 
d="M1 693h223q37 0 69.5 -14t57 -38t38.5 -56.5t14 -69.5q0 -48 -23.5 -88t-61.5 -64q34 -4 63 -20t50.5 -40t34 -55t12.5 -66q0 -38 -14.5 -71t-39 -57.5t-58 -39t-71.5 -14.5h-225h-69v693zM70 665v-301h123q31 0 58.5 12t47.5 32.5t32 48t12 58.5t-12 58t-32 47.5
t-47.5 32.5t-58.5 12h-123zM70 335v-303h185q33 0 63 11t52 31t35 47.5t13 60.5t-13 61t-35 48.5t-52 32t-63 11.5h-185z" />
    <glyph glyph-name="C" unicode="C" horiz-adv-x="688" 
d="M363 720q75 0 140 -28t114 -78l-31 -31q-42 51 -99.5 80t-123.5 29q-62 0 -117 -26t-96 -71t-64.5 -105.5t-23.5 -129.5t23.5 -129.5t64.5 -105.5t96 -71t117 -26q66 0 123.5 29t99.5 80l31 -32q-49 -49 -114 -77t-140 -28t-140.5 28.5t-114 77t-77 114t-28.5 140.5
t28.5 140.5t77 114t114 77t140.5 28.5z" />
    <glyph glyph-name="D" unicode="D" horiz-adv-x="656" 
d="M1 694h22h47h165q71 0 134 -27.5t110 -74.5t74.5 -110t27.5 -135t-27.5 -135t-74.5 -110t-110 -74.5t-134 -27.5h-165h-47h-22v694zM70 666v-638h124h8q66 0 123.5 25t101 68.5t68.5 101.5t25 124t-25 124t-68.5 101.5t-101 68.5t-123.5 25h-8h-124z" />
    <glyph glyph-name="E" unicode="E" horiz-adv-x="451" 
d="M4 694h11h362v-28h-304v-305h224v-28h-224v-305h304v-28h-304h-69v694v0z" />
    <glyph glyph-name="F" unicode="F" horiz-adv-x="450" 
d="M4 694h11h362v-28h-304v-305h224v-28h-224v-333h-69v694v0z" />
    <glyph glyph-name="G" unicode="G" horiz-adv-x="802" 
d="M366 719q75 0 140 -28t114 -77l-29 -34q-42 51 -100 81t-125 30q-62 0 -117 -26t-96 -71t-64.5 -105.5t-23.5 -129.5t23.5 -129t64.5 -105t96 -71t117 -26q60 0 113 24.5t93.5 66.5t65.5 99t28 123h-300v28h301h48h11v-10q0 -74 -28.5 -139.5t-77 -114.5t-114 -77.5
t-140.5 -28.5t-140.5 28.5t-114 77.5t-77 114.5t-28.5 139.5q0 75 28.5 140.5t77 114t114 77t140.5 28.5z" />
    <glyph glyph-name="H" unicode="H" horiz-adv-x="621" 
d="M478 333h-409v-333h-69v694h69v-333h409v333h70v-694h-70v333z" />
    <glyph glyph-name="I" unicode="I" horiz-adv-x="147" 
d="M3 694h69v-694h-69v694v0z" />
    <glyph glyph-name="J" unicode="J" horiz-adv-x="427" 
d="M34 75q18 -28 52.5 -42.5t68.5 -14.5q27 0 51 12.5t41.5 33t28 47t10.5 53.5v530h69v-493q0 -42 -16 -78.5t-43 -63.5t-63.5 -43t-77.5 -16q-48 0 -88.5 20t-68.5 55h36z" />
    <glyph glyph-name="K" unicode="K" horiz-adv-x="503" 
d="M3 694h69v-443l318 443h35l-242 -337q55 -26 100 -58t77.5 -73.5t50.5 -94t18 -118.5v-13h-59v13q0 55 -15.5 105.5t-43 92t-65 72.5t-82.5 48l-92 -128v-203h-69v694z" />
    <glyph glyph-name="L" unicode="L" horiz-adv-x="450" 
d="M73 28h304v-28h-304h-69v694h69v-666v0z" />
    <glyph glyph-name="M" unicode="M" horiz-adv-x="749" 
d="M19 0l36 528l-75 166h76l273 -606l249 606h23l73 -694h-69l-57 544l-203 -491l-22 -53h-30l-214 474l-31 -474h-29v0z" />
    <glyph glyph-name="N" unicode="N" horiz-adv-x="585" 
d="M77 694l406 -596v596h28v-637v-57h-39l-392 576v-576h-28v618l-52 76h77v0z" />
    <glyph glyph-name="O" unicode="O" horiz-adv-x="797" 
d="M363 719q75 0 140.5 -28.5t114 -77.5t77 -114.5t28.5 -139.5q0 -75 -28.5 -140.5t-77 -114t-114 -77t-140.5 -28.5t-140.5 28.5t-114 77t-77 114t-28.5 140.5q0 74 28.5 139.5t77 114.5t114 77.5t140.5 28.5zM363 690q-62 0 -117 -26t-96 -71t-64.5 -105t-23.5 -129
t23.5 -129.5t64.5 -105.5t96 -71t117 -26t117 26t96 71t64.5 105.5t23.5 129.5t-23.5 129t-64.5 105t-96 71t-117 26z" />
    <glyph glyph-name="P" unicode="P" horiz-adv-x="476" 
d="M0 693h223q37 0 69.5 -14t57 -38.5t38.5 -57t14 -69.5t-14 -69.5t-38.5 -56.5t-57 -38t-69.5 -14h-154v-337h-69v694zM69 665v-301h123q31 0 58.5 12t47.5 32.5t32 47.5t12 58t-12 58.5t-32 48t-47.5 32.5t-58.5 12h-123z" />
    <glyph glyph-name="Q" unicode="Q" horiz-adv-x="795" 
d="M361 720q75 0 140.5 -28.5t114 -77t77 -114t28.5 -140.5q0 -60 -18.5 -114t-51.5 -98.5t-78 -77.5t-99 -51l64 -56l-19 -22l-78 68q-20 -4 -39.5 -6.5t-40.5 -2.5q-75 0 -140.5 28.5t-114 77.5t-77 114.5t-28.5 139.5q0 75 28.5 140.5t77 114t114 77t140.5 28.5zM401 82
l46 -40q46 15 85.5 45.5t68.5 72.5t45 93t16 107q0 69 -23.5 129.5t-64.5 105.5t-96 71t-117 26t-117 -26t-96 -71t-64.5 -105.5t-23.5 -129.5t23.5 -129t64.5 -105t96 -71t117 -26q14 0 26.5 1t25.5 4l-30 27z" />
    <glyph glyph-name="R" unicode="R" horiz-adv-x="507" 
d="M2 693h223q37 0 69.5 -14t57 -38.5t38.5 -57t14 -69.5q0 -36 -14 -68.5t-37.5 -56.5t-55.5 -38.5t-68 -15.5q45 -22 82 -55t64 -75t41.5 -91t14.5 -102v-10h-59v10q0 58 -17 110.5t-47 95t-71 73t-89 44.5h-77v-336h-69v694zM71 664v-300h77h46q31 0 58.5 12t47.5 32
t32 47.5t12 58.5t-12 58.5t-32 47.5t-47.5 32t-58.5 12h-123z" />
    <glyph glyph-name="S" unicode="S" horiz-adv-x="480" 
d="M334 583q-2 9 -11 23t-23.5 26.5t-35.5 22t-47 9.5t-46 -9t-33.5 -23t-20.5 -30.5t-7 -31.5t4.5 -30.5t21.5 -35t49 -45t88 -60.5q55 -32 86 -74t41.5 -86.5t1.5 -88t-35 -77.5t-67 -54.5t-94 -19.5q-23 0 -51 7.5t-56.5 25.5t-54 47t-42.5 71h30q0 -5 11.5 -24.5
t33.5 -41t53.5 -39t71.5 -18.5q53 -2 88.5 25.5t47.5 69.5t-1.5 90.5t-57.5 87.5q-33 30 -66.5 51t-63.5 42t-54 45.5t-36 60.5q-12 34 -5.5 67.5t26.5 60.5t50 44.5t65 20.5q22 1 44.5 -2.5t42.5 -13.5t36.5 -25.5t26.5 -37.5l1 -30h-12z" />
    <glyph glyph-name="T" unicode="T" horiz-adv-x="626" 
d="M244 692h69h239v-28h-239v-665h-69v665h-239v28h239v0z" />
    <glyph glyph-name="U" unicode="U" horiz-adv-x="624" 
d="M2 692h69v-461q0 -42 16 -79t44 -65t65.5 -44t79.5 -16t79 16t65 44t44 65t16 79v461h69v-420q0 -56 -21.5 -106t-58.5 -87.5t-87 -59t-106 -21.5q-57 0 -106.5 21.5t-87 59t-59 87.5t-21.5 106v420z" />
    <glyph glyph-name="V" unicode="V" horiz-adv-x="660" 
d="M3 692h74q59 -151 116.5 -300t116.5 -300l245 600h31l-283 -693h-31q-68 174 -134.5 346.5t-134.5 346.5z" />
    <glyph glyph-name="W" unicode="W" horiz-adv-x="921" 
d="M75 694l233 -601l96 234l-142 367h74l106 -274l112 274h30l-127 -312l112 -289l245 601h31l-261 -639l-23 -55h-30l-112 289l-96 -234l-22 -55h-31l-269 694h74v0z" />
    <glyph glyph-name="X" unicode="X" horiz-adv-x="638" 
d="M113 694l183 -305l232 305h35l-251 -331l219 -363h-82q-42 69 -88 146t-94 158l-231 -304h-36l251 330q-60 99 -116 192.5t-103 171.5h81z" />
    <glyph glyph-name="Y" unicode="Y" horiz-adv-x="564" 
d="M81 698l198 -329l179 329h32l-200 -369v-2v-328h-69v331l-117 195t-104 173h81z" />
    <glyph glyph-name="Z" unicode="Z" horiz-adv-x="569" 
d="M0 -1l392 670h-362v29h456l-393 -671h400v-28h-493z" />
    <glyph glyph-name="bracketleft" unicode="[" horiz-adv-x="297" 
d="M103 -96h126v-28h-126h-69v112v657v112h69h126v-29h-126v-83v-657v-84v0z" />
    <glyph glyph-name="backslash" unicode="\" horiz-adv-x="256" 
d="M25 660l201 -693h-27l-202 693h28v0z" />
    <glyph glyph-name="bracketright" unicode="]" horiz-adv-x="356" 
d="M137 -96v84v657v83h-126v29h126h69v-112v-657v-112h-69h-126v28h126v0z" />
    <glyph glyph-name="asciicircum" unicode="^" horiz-adv-x="591" 
d="M14 406l228 388h33l229 -388h-55l-190 357l-190 -357h-55v0z" />
    <glyph glyph-name="underscore" unicode="_" horiz-adv-x="593" 
d="M24 -9h473v-34h-473v34v0z" />
    <glyph glyph-name="grave" unicode="`" horiz-adv-x="176" 
d="M12 787h45l39 -87h-18l-66 87v0z" />
    <glyph glyph-name="a" unicode="a" horiz-adv-x="659" 
d="M583 1h-74q-59 151 -117 300t-116 300l-246 -600h-30l283 693h31q67 -174 134 -346.5t135 -346.5z" />
    <glyph glyph-name="b" unicode="b" horiz-adv-x="552" 
d="M1 693h223q37 0 69.5 -14t57 -38t38.5 -56.5t14 -69.5q0 -48 -23.5 -88t-61.5 -64q34 -4 63 -20t50.5 -40t34 -55t12.5 -66q0 -38 -14.5 -71t-39 -57.5t-58 -39t-71.5 -14.5h-225h-69v693zM70 665v-301h123q31 0 58.5 12t47.5 32.5t32 48t12 58.5t-12 58t-32 47.5
t-47.5 32.5t-58.5 12h-123zM70 335v-303h185q33 0 63 11t52 31t35 47.5t13 60.5t-13 61t-35 48.5t-52 32t-63 11.5h-185z" />
    <glyph glyph-name="c" unicode="c" horiz-adv-x="688" 
d="M363 720q75 0 140 -28t114 -78l-31 -31q-42 51 -99.5 80t-123.5 29q-62 0 -117 -26t-96 -71t-64.5 -105.5t-23.5 -129.5t23.5 -129.5t64.5 -105.5t96 -71t117 -26q66 0 123.5 29t99.5 80l31 -32q-49 -49 -114 -77t-140 -28t-140.5 28.5t-114 77t-77 114t-28.5 140.5
t28.5 140.5t77 114t114 77t140.5 28.5z" />
    <glyph glyph-name="d" unicode="d" horiz-adv-x="656" 
d="M1 694h22h47h165q71 0 134 -27.5t110 -74.5t74.5 -110t27.5 -135t-27.5 -135t-74.5 -110t-110 -74.5t-134 -27.5h-165h-47h-22v694zM70 666v-638h124h8q66 0 123.5 25t101 68.5t68.5 101.5t25 124t-25 124t-68.5 101.5t-101 68.5t-123.5 25h-8h-124z" />
    <glyph glyph-name="e" unicode="e" horiz-adv-x="451" 
d="M4 694h11h362v-28h-304v-305h224v-28h-224v-305h304v-28h-304h-69v694v0z" />
    <glyph glyph-name="f" unicode="f" horiz-adv-x="450" 
d="M4 694h11h362v-28h-304v-305h224v-28h-224v-333h-69v694v0z" />
    <glyph glyph-name="g" unicode="g" horiz-adv-x="802" 
d="M366 719q75 0 140 -28t114 -77l-29 -34q-42 51 -100 81t-125 30q-62 0 -117 -26t-96 -71t-64.5 -105.5t-23.5 -129.5t23.5 -129t64.5 -105t96 -71t117 -26q60 0 113 24.5t93.5 66.5t65.5 99t28 123h-300v28h301h48h11v-10q0 -74 -28.5 -139.5t-77 -114.5t-114 -77.5
t-140.5 -28.5t-140.5 28.5t-114 77.5t-77 114.5t-28.5 139.5q0 75 28.5 140.5t77 114t114 77t140.5 28.5z" />
    <glyph glyph-name="h" unicode="h" horiz-adv-x="621" 
d="M478 333h-409v-333h-69v694h69v-333h409v333h70v-694h-70v333z" />
    <glyph glyph-name="i" unicode="i" horiz-adv-x="147" 
d="M3 694h69v-694h-69v694v0z" />
    <glyph glyph-name="j" unicode="j" horiz-adv-x="427" 
d="M34 75q18 -28 52.5 -42.5t68.5 -14.5q27 0 51 12.5t41.5 33t28 47t10.5 53.5v530h69v-493q0 -42 -16 -78.5t-43 -63.5t-63.5 -43t-77.5 -16q-48 0 -88.5 20t-68.5 55h36z" />
    <glyph glyph-name="k" unicode="k" horiz-adv-x="503" 
d="M3 694h69v-443l318 443h35l-242 -337q55 -26 100 -58t77.5 -73.5t50.5 -94t18 -118.5v-13h-59v13q0 55 -15.5 105.5t-43 92t-65 72.5t-82.5 48l-92 -128v-203h-69v694z" />
    <glyph glyph-name="l" unicode="l" horiz-adv-x="450" 
d="M73 28h304v-28h-304h-69v694h69v-666v0z" />
    <glyph glyph-name="m" unicode="m" horiz-adv-x="749" 
d="M19 0l36 528l-75 166h76l273 -606l249 606h23l73 -694h-69l-57 544l-203 -491l-22 -53h-30l-214 474l-31 -474h-29v0z" />
    <glyph glyph-name="n" unicode="n" horiz-adv-x="585" 
d="M77 694l406 -596v596h28v-637v-57h-39l-392 576v-576h-28v618l-52 76h77v0z" />
    <glyph glyph-name="o" unicode="o" horiz-adv-x="797" 
d="M363 719q75 0 140.5 -28.5t114 -77.5t77 -114.5t28.5 -139.5q0 -75 -28.5 -140.5t-77 -114t-114 -77t-140.5 -28.5t-140.5 28.5t-114 77t-77 114t-28.5 140.5q0 74 28.5 139.5t77 114.5t114 77.5t140.5 28.5zM363 690q-62 0 -117 -26t-96 -71t-64.5 -105t-23.5 -129
t23.5 -129.5t64.5 -105.5t96 -71t117 -26t117 26t96 71t64.5 105.5t23.5 129.5t-23.5 129t-64.5 105t-96 71t-117 26z" />
    <glyph glyph-name="p" unicode="p" horiz-adv-x="476" 
d="M0 693h223q37 0 69.5 -14t57 -38.5t38.5 -57t14 -69.5t-14 -69.5t-38.5 -56.5t-57 -38t-69.5 -14h-154v-337h-69v694zM69 665v-301h123q31 0 58.5 12t47.5 32.5t32 47.5t12 58t-12 58.5t-32 48t-47.5 32.5t-58.5 12h-123z" />
    <glyph glyph-name="q" unicode="q" horiz-adv-x="795" 
d="M361 720q75 0 140.5 -28.5t114 -77t77 -114t28.5 -140.5q0 -60 -18.5 -114t-51.5 -98.5t-78 -77.5t-99 -51l64 -56l-19 -22l-78 68q-20 -4 -39.5 -6.5t-40.5 -2.5q-75 0 -140.5 28.5t-114 77.5t-77 114.5t-28.5 139.5q0 75 28.5 140.5t77 114t114 77t140.5 28.5zM401 82
l46 -40q46 15 85.5 45.5t68.5 72.5t45 93t16 107q0 69 -23.5 129.5t-64.5 105.5t-96 71t-117 26t-117 -26t-96 -71t-64.5 -105.5t-23.5 -129.5t23.5 -129t64.5 -105t96 -71t117 -26q14 0 26.5 1t25.5 4l-30 27z" />
    <glyph glyph-name="r" unicode="r" horiz-adv-x="507" 
d="M2 693h223q37 0 69.5 -14t57 -38.5t38.5 -57t14 -69.5q0 -36 -14 -68.5t-37.5 -56.5t-55.5 -38.5t-68 -15.5q45 -22 82 -55t64 -75t41.5 -91t14.5 -102v-10h-59v10q0 58 -17 110.5t-47 95t-71 73t-89 44.5h-77v-336h-69v694zM71 664v-300h77h46q31 0 58.5 12t47.5 32
t32 47.5t12 58.5t-12 58.5t-32 47.5t-47.5 32t-58.5 12h-123z" />
    <glyph glyph-name="s" unicode="s" horiz-adv-x="480" 
d="M334 583q-2 9 -11 23t-23.5 26.5t-35.5 22t-47 9.5t-46 -9t-33.5 -23t-20.5 -30.5t-7 -31.5t4.5 -30.5t21.5 -35t49 -45t88 -60.5q55 -32 86 -74t41.5 -86.5t1.5 -88t-35 -77.5t-67 -54.5t-94 -19.5q-23 0 -51 7.5t-56.5 25.5t-54 47t-42.5 71h30q0 -5 11.5 -24.5
t33.5 -41t53.5 -39t71.5 -18.5q53 -2 88.5 25.5t47.5 69.5t-1.5 90.5t-57.5 87.5q-33 30 -66.5 51t-63.5 42t-54 45.5t-36 60.5q-12 34 -5.5 67.5t26.5 60.5t50 44.5t65 20.5q22 1 44.5 -2.5t42.5 -13.5t36.5 -25.5t26.5 -37.5l1 -30h-12z" />
    <glyph glyph-name="t" unicode="t" horiz-adv-x="626" 
d="M244 692h69h239v-28h-239v-665h-69v665h-239v28h239v0z" />
    <glyph glyph-name="u" unicode="u" horiz-adv-x="624" 
d="M2 692h69v-461q0 -42 16 -79t44 -65t65.5 -44t79.5 -16t79 16t65 44t44 65t16 79v461h69v-420q0 -56 -21.5 -106t-58.5 -87.5t-87 -59t-106 -21.5q-57 0 -106.5 21.5t-87 59t-59 87.5t-21.5 106v420z" />
    <glyph glyph-name="v" unicode="v" horiz-adv-x="660" 
d="M3 692h74q59 -151 116.5 -300t116.5 -300l245 600h31l-283 -693h-31q-68 174 -134.5 346.5t-134.5 346.5z" />
    <glyph glyph-name="w" unicode="w" horiz-adv-x="921" 
d="M75 694l233 -601l96 234l-142 367h74l106 -274l112 274h30l-127 -312l112 -289l245 601h31l-261 -639l-23 -55h-30l-112 289l-96 -234l-22 -55h-31l-269 694h74v0z" />
    <glyph glyph-name="x" unicode="x" horiz-adv-x="638" 
d="M113 694l183 -305l232 305h35l-251 -331l219 -363h-82q-42 69 -88 146t-94 158l-231 -304h-36l251 330q-60 99 -116 192.5t-103 171.5h81z" />
    <glyph glyph-name="y" unicode="y" horiz-adv-x="564" 
d="M81 698l198 -329l179 329h32l-200 -369v-2v-328h-69v331l-117 195t-104 173h81z" />
    <glyph glyph-name="z" unicode="z" horiz-adv-x="569" 
d="M0 -1l392 670h-362v29h456l-393 -671h400v-28h-493z" />
    <glyph glyph-name="braceleft" unicode="{" horiz-adv-x="317" 
d="M221 717q-41 -6 -57 -32t-19 -63.5t0.5 -81.5t1 -86.5t-16.5 -79t-53 -58.5q39 -22 53 -58t16.5 -78.5t-1 -86.5t-0.5 -81.5t19 -63.5t57 -32v-32q-54 2 -83.5 20.5t-42.5 48t-13.5 66.5t2.5 75t6.5 75t-2 66t-23 47t-56.5 19v31q38 0 56 17t23 44.5t2 63t-6 73.5
t-2.5 74.5t13.5 67t42.5 51t83.5 25.5v-31z" />
    <glyph glyph-name="bar" unicode="|" horiz-adv-x="210" 
d="M75 709h28v-791h-28v791v0z" />
    <glyph glyph-name="braceright" unicode="}" horiz-adv-x="261" 
d="M20 748q54 -5 83 -25.5t42 -51t14 -67t-2.5 -74.5t-6.5 -73.5t2 -63t23 -44.5t56 -17v-31q-39 -1 -56.5 -19t-23 -47t-2 -66t7 -75t2.5 -75t-13.5 -66.5t-42 -48t-83.5 -20.5v32q41 6 57 32t18.5 63.5t-1 81.5t-1 86.5t16.5 78.5t53 58q-39 22 -53 58.5t-16.5 79t1 86.5
t1 81.5t-18.5 63.5t-57 32v31z" />
    <glyph glyph-name="asciitilde" unicode="~" 
 />
    <glyph glyph-name="exclamdown" unicode="&#xa1;" horiz-adv-x="185" 
d="M111 -41h-69l26 566h19zM77 575q-18 0 -30.5 12.5t-12.5 30.5q0 17 12.5 29.5t30.5 12.5q17 0 29.5 -12.5t12.5 -29.5q0 -18 -12.5 -30.5t-29.5 -12.5z" />
    <glyph glyph-name="cent" unicode="&#xa2;" 
 />
    <glyph glyph-name="sterling" unicode="&#xa3;" 
 />
    <glyph glyph-name="currency" unicode="&#xa4;" 
 />
    <glyph glyph-name="yen" unicode="&#xa5;" 
 />
    <glyph glyph-name="brokenbar" unicode="&#xa6;" 
 />
    <glyph glyph-name="section" unicode="&#xa7;" 
 />
    <glyph glyph-name="dieresis" unicode="&#xa8;" 
 />
    <glyph glyph-name="copyright" unicode="&#xa9;" 
 />
    <glyph glyph-name="ordfeminine" unicode="&#xaa;" 
 />
    <glyph glyph-name="guillemotleft" unicode="&#xab;" 
 />
    <glyph glyph-name="logicalnot" unicode="&#xac;" 
 />
    <glyph glyph-name="registered" unicode="&#xae;" 
 />
    <glyph glyph-name="macron" unicode="&#xaf;" 
 />
    <glyph glyph-name="degree" unicode="&#xb0;" 
 />
    <glyph glyph-name="plusminus" unicode="&#xb1;" 
 />
    <glyph glyph-name="twosuperior" unicode="&#xb2;" 
 />
    <glyph glyph-name="threesuperior" unicode="&#xb3;" 
 />
    <glyph glyph-name="acute" unicode="&#xb4;" 
 />
    <glyph glyph-name="mu" unicode="&#xb5;" 
 />
    <glyph glyph-name="paragraph" unicode="&#xb6;" 
 />
    <glyph glyph-name="periodcentered" unicode="&#xb7;" 
 />
    <glyph glyph-name="periodcentered" unicode="&#x2219;" 
 />
    <glyph glyph-name="cedilla" unicode="&#xb8;" 
 />
    <glyph glyph-name="onesuperior" unicode="&#xb9;" 
 />
    <glyph glyph-name="ordmasculine" unicode="&#xba;" 
 />
    <glyph glyph-name="guillemotright" unicode="&#xbb;" 
 />
    <glyph glyph-name="onequarter" unicode="&#xbc;" 
 />
    <glyph glyph-name="onehalf" unicode="&#xbd;" 
 />
    <glyph glyph-name="threequarters" unicode="&#xbe;" 
 />
    <glyph glyph-name="questiondown" unicode="&#xbf;" horiz-adv-x="498" 
d="M159 586q-18 0 -30.5 12.5t-12.5 30.5q0 17 12.5 29.5t30.5 12.5q17 0 29.5 -12.5t12.5 -29.5q0 -18 -12.5 -30.5t-29.5 -12.5zM378 176q0 -67 -25.5 -111.5t-64 -68.5t-85 -28t-88 9.5t-72.5 43.5t-39.5 74.5t11.5 102t81 126.5q24 26 35.5 51t15.5 52t3.5 57t-0.5 66
h24q-1 -36 1.5 -67t0.5 -60.5t-11.5 -59.5t-34.5 -64q-29 -36 -46.5 -68t-25.5 -61q-15 -54 1.5 -92t50 -58.5t76.5 -22.5t81.5 16.5t65 59t26.5 103.5h19z" />
    <glyph glyph-name="Agrave" unicode="&#xc0;" horiz-adv-x="659" 
d="M583 1h-74q-59 151 -117 300t-116 300l-246 -600h-30l283 693h31q67 -174 134 -346.5t135 -346.5zM300 752h-16l-87 80h47z" />
    <glyph glyph-name="Aacute" unicode="&#xc1;" horiz-adv-x="659" 
d="M583 1h-74q-59 151 -117 300t-116 300l-246 -600h-30l283 693h31q67 -174 134 -346.5t135 -346.5zM348 832h47l-87 -80h-15z" />
    <glyph glyph-name="Acircumflex" unicode="&#xc2;" horiz-adv-x="659" 
d="M583 1h-74q-59 151 -117 300t-116 300l-246 -600h-30l283 693h31q67 -174 134 -346.5t135 -346.5zM209 750l75 62h17l75 -62h-44l-39 45l-40 -45h-44z" />
    <glyph glyph-name="Atilde" unicode="&#xc3;" horiz-adv-x="659" 
d="M583 1h-74q-59 151 -117 300t-116 300l-246 -600h-30l283 693h31q67 -174 134 -346.5t135 -346.5zM241 759q10 10 22 15q10 5 23 4.5t27 -11.5q6 -4 8 -5q12 -7 24 -5q7 1 11 5l1 1l18 -10q0 -1 -2 -3q-8 -11 -25 -14q-16 -3 -37 7q-3 2 -11 8t-16 6t-14 -3
q-7 -4 -14 -10z" />
    <glyph glyph-name="Adieresis" unicode="&#xc4;" horiz-adv-x="659" 
d="M509 1q-59 151 -117 300t-116 300l-246 -600h-30l283 693h31q67 -174 134 -346.5t135 -346.5h-74zM268 771q8 0 13.5 -5.5t5.5 -13.5q0 -19 -19 -19q-8 0 -13.5 5.5t-5.5 13.5t5.5 13.5t13.5 5.5zM340 771q8 0 13.5 -5.5t5.5 -13.5t-5.5 -13.5t-13.5 -5.5t-14 5.5
t-6 13.5t6 13.5t14 5.5z" />
    <glyph glyph-name="Aring" unicode="&#xc5;" horiz-adv-x="659" 
d="M583 1h-74q-59 151 -117 300t-116 300l-246 -600h-30l283 693h31q67 -174 134 -346.5t135 -346.5zM297 819q19 0 32.5 -13.5t13.5 -32.5q0 -20 -13.5 -33.5t-32.5 -13.5q-20 0 -33 13.5t-13 33.5q0 19 13 32.5t33 13.5zM297 800q-11 0 -19.5 -8t-8.5 -19q0 -12 8.5 -20
t19.5 -8t19 8t8 20q0 11 -8 19t-19 8z" />
    <glyph glyph-name="AE" unicode="&#xc6;" horiz-adv-x="708" 
d="M276 600l-246 -600h-30l283 693h31h342v-28h-304v-305h224v-28h-224v-305h304v-28h-304h-69v619l-7 -18v0z" />
    <glyph glyph-name="Ccedilla" unicode="&#xc7;" horiz-adv-x="688" 
d="M362 719q75 0 140.5 -28t114.5 -77l-32 -32q-42 51 -99 80t-124 29q-62 0 -117 -26t-96 -71t-64.5 -105.5t-23.5 -129.5t23.5 -129t64.5 -105t96 -71t117 -26q67 0 124 29t99 80l32 -32q-49 -49 -114.5 -77t-140.5 -28q-35 0 -68 6l-4 -14q35 -8 56 -27t19 -40
q-2 -19 -14.5 -30t-30.5 -16t-38 -6t-37 1l3 10q24 -1 43 3q17 3 30.5 11.5t15.5 26.5q2 19 -8 31t-24 19q-16 8 -36 12l9 22q-59 14 -109.5 47t-87.5 79t-58 103.5t-21 120.5q0 75 28.5 140.5t77 114t114 77t140.5 28.5z" />
    <glyph glyph-name="Egrave" unicode="&#xc8;" horiz-adv-x="451" 
d="M4 694h373v-28h-304v-305h224v-28h-224v-305h304v-28h-304h-69v694v0zM211 752h-15l-87 80h47l55 -80v0z" />
    <glyph glyph-name="Eacute" unicode="&#xc9;" horiz-adv-x="451" 
d="M4 694h11h362v-28h-304v-305h224v-28h-224v-305h304v-28h-304h-69v694v0zM167 752l55 80h47l-87 -80h-15z" />
    <glyph glyph-name="Ecircumflex" unicode="&#xca;" horiz-adv-x="451" 
d="M4 694h11h362v-28h-304v-305h224v-28h-224v-305h304v-28h-304h-69v694v0zM100 750l75 62h17l74 -62h-43l-40 45l-39 -45h-44v0z" />
    <glyph glyph-name="Edieresis" unicode="&#xcb;" horiz-adv-x="451" 
d="M4 694h11h362v-28h-304v-305h224v-28h-224v-305h304v-28h-304h-69v694zM159 771q8 0 13.5 -5.5t5.5 -13.5t-5.5 -13.5t-13.5 -5.5q-19 0 -19 19q0 8 5.5 13.5t13.5 5.5zM230 771q8 0 13.5 -5.5t5.5 -13.5q0 -19 -19 -19q-8 0 -13.5 5.5t-5.5 13.5t5.5 13.5t13.5 5.5z" />
    <glyph glyph-name="Igrave" unicode="&#xcc;" horiz-adv-x="147" 
d="M3 694h69v-694h-69v694v0zM40 752h-16l-87 80h48l55 -80v0z" />
    <glyph glyph-name="Iacute" unicode="&#xcd;" horiz-adv-x="147" 
d="M3 694h69v-694h-69v694v0zM20 752l56 80h47l-87 -80h-16z" />
    <glyph glyph-name="Icircumflex" unicode="&#xce;" horiz-adv-x="147" 
d="M3 694h69v-694h-69v694v0zM-54 750l74 62h18l74 -62h-44l-39 45l-39 -45h-44v0z" />
    <glyph glyph-name="Idieresis" unicode="&#xcf;" horiz-adv-x="147" 
d="M3 694h69v-694h-69v694zM0 771q8 0 13.5 -5.5t5.5 -13.5t-5.5 -13.5t-13.5 -5.5q-19 0 -19 19q0 8 5.5 13.5t13.5 5.5zM71 771q8 0 13.5 -5.5t5.5 -13.5q0 -19 -19 -19t-19 19q0 8 5.5 13.5t13.5 5.5z" />
    <glyph glyph-name="Eth" unicode="&#xd0;" horiz-adv-x="656" 
d="M-1 693h233q72 0 135 -27.5t110 -74.5t74.5 -110t27.5 -135t-27.5 -135t-74.5 -110t-110 -74.5t-135 -27.5h-233v336h-42v22h42v336zM68 664v-307h121v-22h-121v-308h131q66 0 124 25t101.5 68.5t68.5 101.5t25 124t-25 123.5t-68.5 101t-101.5 68.5t-124 25h-131z" />
    <glyph glyph-name="Ntilde" unicode="&#xd1;" horiz-adv-x="585" 
d="M77 694l406 -596v596h28v-637v-57h-39l-392 576v-576h-28v618l-52 76h77zM241 759q10 10 22 15q10 5 23 4.5t27 -11.5q6 -4 9 -5q12 -7 23 -5q8 1 12 5v1l18 -10q0 -1 -2 -3q-8 -11 -25 -14t-36 7q-4 2 -12 8t-16 6t-14 -3q-7 -4 -14 -10z" />
    <glyph glyph-name="Ograve" unicode="&#xd2;" horiz-adv-x="797" 
d="M363 719q75 0 140.5 -28.5t114 -77.5t77 -114.5t28.5 -139.5q0 -75 -28.5 -140.5t-77 -114t-114 -77t-140.5 -28.5t-140.5 28.5t-114 77t-77 114t-28.5 140.5q0 74 28.5 139.5t77 114.5t114 77.5t140.5 28.5zM363 690q-62 0 -117 -26t-96 -71t-64.5 -105t-23.5 -129
t23.5 -129.5t64.5 -105.5t96 -71t117 -26t117 26t96 71t64.5 105.5t23.5 129.5t-23.5 129t-64.5 105t-96 71t-117 26zM380 752h-15l-87 80h47z" />
    <glyph glyph-name="Oacute" unicode="&#xd3;" horiz-adv-x="797" 
d="M363 719q75 0 140.5 -28.5t114 -77.5t77 -114.5t28.5 -139.5q0 -75 -28.5 -140.5t-77 -114t-114 -77t-140.5 -28.5t-140.5 28.5t-114 77t-77 114t-28.5 140.5q0 74 28.5 139.5t77 114.5t114 77.5t140.5 28.5zM363 690q-62 0 -117 -26t-96 -71t-64.5 -105t-23.5 -129
t23.5 -129.5t64.5 -105.5t96 -71t117 -26t117 26t96 71t64.5 105.5t23.5 129.5t-23.5 129t-64.5 105t-96 71t-117 26zM416 832h47l-87 -80h-15z" />
    <glyph glyph-name="Ocircumflex" unicode="&#xd4;" horiz-adv-x="797" 
d="M363 719q75 0 140.5 -28.5t114 -77.5t77 -114.5t28.5 -139.5q0 -75 -28.5 -140.5t-77 -114t-114 -77t-140.5 -28.5t-140.5 28.5t-114 77t-77 114t-28.5 140.5q0 74 28.5 139.5t77 114.5t114 77.5t140.5 28.5zM363 690q-62 0 -117 -26t-96 -71t-64.5 -105t-23.5 -129
t23.5 -129.5t64.5 -105.5t96 -71t117 -26t117 26t96 71t64.5 105.5t23.5 129.5t-23.5 129t-64.5 105t-96 71t-117 26zM274 750l74 62h18l74 -62h-43l-40 45l-39 -45h-44z" />
    <glyph glyph-name="Otilde" unicode="&#xd5;" horiz-adv-x="797" 
d="M363 719q75 0 140.5 -28.5t114 -77.5t77 -114.5t28.5 -139.5q0 -75 -28.5 -140.5t-77 -114t-114 -77t-140.5 -28.5t-140.5 28.5t-114 77t-77 114t-28.5 140.5q0 74 28.5 139.5t77 114.5t114 77.5t140.5 28.5zM363 690q-62 0 -117 -26t-96 -71t-64.5 -105t-23.5 -129
t23.5 -129.5t64.5 -105.5t96 -71t117 -26t117 26t96 71t64.5 105.5t23.5 129.5t-23.5 129t-64.5 105t-96 71t-117 26zM303 794l6.5 5.5t16.5 9.5t22.5 4t26.5 -10q4 -5 9 -6q12 -7 23 -5q9 1 12 6h1l18 -10q-2 -2 -2 -3q-9 -11 -25 -14q-8 -1 -17 0.5t-20 6.5l-6 4t-5 4
q-8 6 -16.5 6t-14.5 -3q-8 -4 -14 -10z" />
    <glyph glyph-name="Odieresis" unicode="&#xd6;" horiz-adv-x="797" 
d="M363 719q75 0 140.5 -28.5t114 -77.5t77 -114.5t28.5 -139.5q0 -75 -28.5 -140.5t-77 -114t-114 -77t-140.5 -28.5t-140.5 28.5t-114 77t-77 114t-28.5 140.5q0 74 28.5 139.5t77 114.5t114 77.5t140.5 28.5zM363 690q-62 0 -117 -26t-96 -71t-64.5 -105t-23.5 -129
t23.5 -129.5t64.5 -105.5t96 -71t117 -26t117 26t96 71t64.5 105.5t23.5 129.5t-23.5 129t-64.5 105t-96 71t-117 26zM326 791q8 0 13.5 -5.5t5.5 -13.5t-5.5 -13.5t-13.5 -5.5t-13.5 5.5t-5.5 13.5q0 19 19 19zM397 791q19 0 19 -19q0 -8 -5.5 -13.5t-13.5 -5.5t-13.5 5.5
t-5.5 13.5q0 19 19 19z" />
    <glyph glyph-name="multiply" unicode="&#xd7;" 
 />
    <glyph glyph-name="Oslash" unicode="&#xd8;" horiz-adv-x="797" 
d="M360 719q71 0 135 -26l43 96h28l-48 -107q45 -22 82 -55t63.5 -75t41 -91t14.5 -102q0 -75 -28.5 -140.5t-77 -114t-114 -77t-139.5 -28.5q-36 0 -70 7t-66 20l-43 -97h-28l48 107q-45 22 -82 55t-63.5 75t-41 91t-14.5 102q0 75 28.5 140.5t77 114t114 77t140.5 28.5z
M504 650l-266 -594q58 -28 122 -28q62 0 117 26t95.5 71t64 105t23.5 129q0 47 -11.5 90.5t-32 81t-49 68t-63.5 51.5zM216 68l265 594q-56 29 -121 29q-63 0 -117.5 -26t-95.5 -71t-64.5 -105.5t-23.5 -129.5q0 -47 11.5 -90.5t32 -81t49.5 -68t64 -51.5z" />
    <glyph glyph-name="Ugrave" unicode="&#xd9;" horiz-adv-x="624" 
d="M2 692h69v-461q0 -42 16 -79t44 -65t65.5 -44t79.5 -16t79 16t65 44t44 65t16 79v461h69v-420q0 -56 -21.5 -106t-58.5 -87.5t-87 -59t-106 -21.5q-57 0 -106.5 21.5t-87 59t-59 87.5t-21.5 106v420zM300 752h-15l-87 80h47z" />
    <glyph glyph-name="Uacute" unicode="&#xda;" horiz-adv-x="624" 
d="M2 692h69v-461q0 -42 16 -79t44 -65t65.5 -44t79.5 -16t79 16t65 44t44 65t16 79v461h69v-420q0 -56 -21.5 -106t-58.5 -87.5t-87 -59t-106 -21.5q-57 0 -106.5 21.5t-87 59t-59 87.5t-21.5 106v420zM290 832h47l-87 -80h-16z" />
    <glyph glyph-name="Ucircumflex" unicode="&#xdb;" horiz-adv-x="624" 
d="M2 692h69v-461q0 -42 16 -79t44 -65t65.5 -44t79.5 -16t79 16t65 44t44 65t16 79v461h69v-420q0 -56 -21.5 -106t-58.5 -87.5t-87 -59t-106 -21.5q-57 0 -106.5 21.5t-87 59t-59 87.5t-21.5 106v420zM193 750l74 62h18l74 -62h-44l-39 45l-39 -45h-44z" />
    <glyph glyph-name="Udieresis" unicode="&#xdc;" horiz-adv-x="624" 
d="M2 692h69v-461q0 -42 16 -79t44 -65t65.5 -44t79.5 -16t79 16t65 44t44 65t16 79v461h69v-420q0 -56 -21.5 -106t-58.5 -87.5t-87 -59t-106 -21.5q-57 0 -106.5 21.5t-87 59t-59 87.5t-21.5 106v420zM247 791q8 0 13.5 -5.5t5.5 -13.5t-5.5 -13.5t-13.5 -5.5t-13.5 5.5
t-5.5 13.5q0 19 19 19zM318 791q19 0 19 -19q0 -8 -5.5 -13.5t-13.5 -5.5t-13.5 5.5t-5.5 13.5q0 19 19 19z" />
    <glyph glyph-name="Yacute" unicode="&#xdd;" horiz-adv-x="564" 
d="M81 698l198 -329l179 329h32l-200 -369v-2v-328h-69v331l-117 195t-104 173h81zM292 832h47l-87 -80h-16z" />
    <glyph glyph-name="agrave" unicode="&#xe0;" horiz-adv-x="659" 
d="M583 1h-74q-59 151 -117 300t-116 300l-246 -600h-30l283 693h31q67 -174 134 -346.5t135 -346.5zM300 752h-16l-87 80h47z" />
    <glyph glyph-name="aacute" unicode="&#xe1;" horiz-adv-x="659" 
d="M583 1h-74q-59 151 -117 300t-116 300l-246 -600h-30l283 693h31q67 -174 134 -346.5t135 -346.5zM348 832h47l-87 -80h-15z" />
    <glyph glyph-name="acircumflex" unicode="&#xe2;" horiz-adv-x="659" 
d="M583 1h-74q-59 151 -117 300t-116 300l-246 -600h-30l283 693h31q67 -174 134 -346.5t135 -346.5zM209 750l75 62h17l75 -62h-44l-39 45l-40 -45h-44z" />
    <glyph glyph-name="atilde" unicode="&#xe3;" horiz-adv-x="659" 
d="M583 1h-74q-59 151 -117 300t-116 300l-246 -600h-30l283 693h31q67 -174 134 -346.5t135 -346.5zM241 759q10 10 22 15q10 5 23 4.5t27 -11.5q6 -4 8 -5q12 -7 24 -5q7 1 11 5l1 1l18 -10q0 -1 -2 -3q-8 -11 -25 -14q-16 -3 -37 7q-3 2 -11 8t-16 6t-14 -3
q-7 -4 -14 -10z" />
    <glyph glyph-name="adieresis" unicode="&#xe4;" horiz-adv-x="659" 
d="M509 1q-59 151 -117 300t-116 300l-246 -600h-30l283 693h31q67 -174 134 -346.5t135 -346.5h-74zM268 771q8 0 13.5 -5.5t5.5 -13.5q0 -19 -19 -19q-8 0 -13.5 5.5t-5.5 13.5t5.5 13.5t13.5 5.5zM340 771q8 0 13.5 -5.5t5.5 -13.5t-5.5 -13.5t-13.5 -5.5t-14 5.5
t-6 13.5t6 13.5t14 5.5z" />
    <glyph glyph-name="aring" unicode="&#xe5;" horiz-adv-x="659" 
d="M583 1h-74q-59 151 -117 300t-116 300l-246 -600h-30l283 693h31q67 -174 134 -346.5t135 -346.5zM297 819q19 0 32.5 -13.5t13.5 -32.5q0 -20 -13.5 -33.5t-32.5 -13.5q-20 0 -33 13.5t-13 33.5q0 19 13 32.5t33 13.5zM297 800q-11 0 -19.5 -8t-8.5 -19q0 -12 8.5 -20
t19.5 -8t19 8t8 20q0 11 -8 19t-19 8z" />
    <glyph glyph-name="ae" unicode="&#xe6;" horiz-adv-x="708" 
d="M276 600l-246 -600h-30l283 693h31h342v-28h-304v-305h224v-28h-224v-305h304v-28h-304h-69v619l-7 -18v0z" />
    <glyph glyph-name="ccedilla" unicode="&#xe7;" horiz-adv-x="688" 
d="M362 719q75 0 140 -28t114 -77l-31 -32q-42 51 -99.5 80t-123.5 29q-62 0 -117 -26t-96 -71t-64.5 -105.5t-23.5 -129.5t23.5 -129t64.5 -105t96 -71t117 -26q66 0 123.5 29t99.5 80l31 -32q-49 -49 -114 -77t-140 -28q-35 0 -68 6l-4 -14q35 -8 55.5 -27t18.5 -40
q-2 -19 -14 -30t-30 -16t-38 -6t-37 1l2 10q24 -1 43 3q17 3 31 11.5t16 26.5q2 19 -8.5 31t-24.5 19q-16 8 -36 12l10 22q-59 14 -109.5 47t-87.5 79t-58 103.5t-21 120.5q0 75 28.5 140.5t77 114t114 77t140.5 28.5z" />
    <glyph glyph-name="egrave" unicode="&#xe8;" horiz-adv-x="451" 
d="M4 694h373v-28h-304v-305h224v-28h-224v-305h304v-28h-304h-69v694v0zM211 752h-15l-87 80h47l55 -80v0z" />
    <glyph glyph-name="eacute" unicode="&#xe9;" horiz-adv-x="451" 
d="M4 694h11h362v-28h-304v-305h224v-28h-224v-305h304v-28h-304h-69v694v0zM167 752l55 80h47l-87 -80h-15z" />
    <glyph glyph-name="ecircumflex" unicode="&#xea;" horiz-adv-x="451" 
d="M4 694h11h362v-28h-304v-305h224v-28h-224v-305h304v-28h-304h-69v694v0zM100 750l75 62h17l74 -62h-43l-40 45l-39 -45h-44v0z" />
    <glyph glyph-name="edieresis" unicode="&#xeb;" horiz-adv-x="451" 
d="M4 694h11h362v-28h-304v-305h224v-28h-224v-305h304v-28h-304h-69v694zM159 771q8 0 13.5 -5.5t5.5 -13.5t-5.5 -13.5t-13.5 -5.5q-19 0 -19 19q0 8 5.5 13.5t13.5 5.5zM230 771q8 0 13.5 -5.5t5.5 -13.5q0 -19 -19 -19q-8 0 -13.5 5.5t-5.5 13.5t5.5 13.5t13.5 5.5z" />
    <glyph glyph-name="igrave" unicode="&#xec;" horiz-adv-x="147" 
d="M3 694h69v-694h-69v694v0zM40 752h-16l-87 80h47l56 -80v0z" />
    <glyph glyph-name="iacute" unicode="&#xed;" horiz-adv-x="147" 
d="M3 694h69v-694h-69v694v0zM20 752l56 80h47l-87 -80h-16z" />
    <glyph glyph-name="icircumflex" unicode="&#xee;" horiz-adv-x="147" 
d="M3 694h69v-694h-69v694v0zM-54 750l74 62h18l74 -62h-43l-40 45l-39 -45h-44v0z" />
    <glyph glyph-name="idieresis" unicode="&#xef;" horiz-adv-x="147" 
d="M3 694h69v-694h-69v694zM0 771q8 0 13.5 -5.5t5.5 -13.5q0 -19 -19 -19q-8 0 -13.5 5.5t-5.5 13.5t5.5 13.5t13.5 5.5zM71 771q8 0 14 -5.5t6 -13.5t-6 -13.5t-14 -5.5t-13.5 5.5t-5.5 13.5t5.5 13.5t13.5 5.5z" />
    <glyph glyph-name="eth" unicode="&#xf0;" horiz-adv-x="656" 
d="M-2 693h234q72 0 135 -27.5t110 -74.5t74.5 -110t27.5 -135t-27.5 -135t-74.5 -110t-110 -74.5t-135 -27.5h-234v336h-41v22h41v336zM67 664v-307h122v-22h-122v-308h132q66 0 124 25t101.5 68.5t68.5 101.5t25 124t-25 123.5t-68.5 101t-101.5 68.5t-124 25h-132z" />
    <glyph glyph-name="ntilde" unicode="&#xf1;" horiz-adv-x="585" 
d="M77 694l406 -596v596h28v-637v-57h-39l-392 576v-576h-28v618l-52 76h77zM241 759q10 10 22 15q10 5 23 4.5t27 -11.5q6 -4 9 -5q12 -7 23 -5q8 1 12 5v1l18 -10q0 -1 -2 -3q-8 -11 -25 -14t-36 7q-4 2 -12 8t-16 6t-14 -3q-7 -4 -14 -10z" />
    <glyph glyph-name="ograve" unicode="&#xf2;" horiz-adv-x="797" 
d="M363 719q75 0 140.5 -28.5t114 -77.5t77 -114.5t28.5 -139.5q0 -75 -28.5 -140.5t-77 -114t-114 -77t-140.5 -28.5t-140.5 28.5t-114 77t-77 114t-28.5 140.5q0 74 28.5 139.5t77 114.5t114 77.5t140.5 28.5zM363 690q-62 0 -117 -26t-96 -71t-64.5 -105t-23.5 -129
t23.5 -129.5t64.5 -105.5t96 -71t117 -26t117 26t96 71t64.5 105.5t23.5 129.5t-23.5 129t-64.5 105t-96 71t-117 26zM380 752h-15l-87 80h47z" />
    <glyph glyph-name="oacute" unicode="&#xf3;" horiz-adv-x="797" 
d="M363 719q75 0 140.5 -28.5t114 -77.5t77 -114.5t28.5 -139.5q0 -75 -28.5 -140.5t-77 -114t-114 -77t-140.5 -28.5t-140.5 28.5t-114 77t-77 114t-28.5 140.5q0 74 28.5 139.5t77 114.5t114 77.5t140.5 28.5zM363 690q-62 0 -117 -26t-96 -71t-64.5 -105t-23.5 -129
t23.5 -129.5t64.5 -105.5t96 -71t117 -26t117 26t96 71t64.5 105.5t23.5 129.5t-23.5 129t-64.5 105t-96 71t-117 26zM416 832h47l-87 -80h-15z" />
    <glyph glyph-name="ocircumflex" unicode="&#xf4;" horiz-adv-x="797" 
d="M363 719q75 0 140.5 -28.5t114 -77.5t77 -114.5t28.5 -139.5q0 -75 -28.5 -140.5t-77 -114t-114 -77t-140.5 -28.5t-140.5 28.5t-114 77t-77 114t-28.5 140.5q0 74 28.5 139.5t77 114.5t114 77.5t140.5 28.5zM363 690q-62 0 -117 -26t-96 -71t-64.5 -105t-23.5 -129
t23.5 -129.5t64.5 -105.5t96 -71t117 -26t117 26t96 71t64.5 105.5t23.5 129.5t-23.5 129t-64.5 105t-96 71t-117 26zM274 750l74 62h18l74 -62h-43l-40 45l-39 -45h-44z" />
    <glyph glyph-name="otilde" unicode="&#xf5;" horiz-adv-x="797" 
d="M363 719q75 0 140.5 -28.5t114 -77.5t77 -114.5t28.5 -139.5q0 -75 -28.5 -140.5t-77 -114t-114 -77t-140.5 -28.5t-140.5 28.5t-114 77t-77 114t-28.5 140.5q0 74 28.5 139.5t77 114.5t114 77.5t140.5 28.5zM363 690q-62 0 -117 -26t-96 -71t-64.5 -105t-23.5 -129
t23.5 -129.5t64.5 -105.5t96 -71t117 -26t117 26t96 71t64.5 105.5t23.5 129.5t-23.5 129t-64.5 105t-96 71t-117 26zM303 794l6.5 5.5t16.5 9.5t22.5 4t26.5 -10q4 -5 9 -6q12 -7 23 -5q9 1 12 6h1l18 -10q-2 -2 -2 -3q-9 -11 -25 -14q-8 -1 -17 0.5t-20 6.5l-6 4t-5 4
q-8 6 -16.5 6t-14.5 -3q-8 -4 -14 -10z" />
    <glyph glyph-name="odieresis" unicode="&#xf6;" horiz-adv-x="797" 
d="M363 719q75 0 140.5 -28.5t114 -77.5t77 -114.5t28.5 -139.5q0 -75 -28.5 -140.5t-77 -114t-114 -77t-140.5 -28.5t-140.5 28.5t-114 77t-77 114t-28.5 140.5q0 74 28.5 139.5t77 114.5t114 77.5t140.5 28.5zM363 690q-62 0 -117 -26t-96 -71t-64.5 -105t-23.5 -129
t23.5 -129.5t64.5 -105.5t96 -71t117 -26t117 26t96 71t64.5 105.5t23.5 129.5t-23.5 129t-64.5 105t-96 71t-117 26zM326 791q8 0 13.5 -5.5t5.5 -13.5t-5.5 -13.5t-13.5 -5.5t-13.5 5.5t-5.5 13.5q0 19 19 19zM397 791q19 0 19 -19q0 -8 -5.5 -13.5t-13.5 -5.5t-13.5 5.5
t-5.5 13.5q0 19 19 19z" />
    <glyph glyph-name="divide" unicode="&#xf7;" 
 />
    <glyph glyph-name="oslash" unicode="&#xf8;" horiz-adv-x="797" 
d="M360 719q71 0 135 -26l44 96h27l-48 -107q45 -22 82 -55t64 -75t41.5 -91t14.5 -102q0 -75 -28.5 -140.5t-77 -114t-114 -77t-140.5 -28.5q-36 0 -70 7t-65 20l-44 -97h-27l48 107q-45 22 -82 55t-64 75t-41.5 91t-14.5 102q0 75 28.5 140.5t77 114t114 77t140.5 28.5z
M504 650l-266 -594q58 -28 122 -28q62 0 117 26t96 71t64.5 105t23.5 129q0 47 -11.5 90.5t-32 81t-49.5 68t-64 51.5zM216 68l266 594q-58 29 -122 29q-62 0 -117 -26t-96 -71t-64.5 -105.5t-23.5 -129.5q0 -47 11.5 -90.5t32 -81t49.5 -68t64 -51.5z" />
    <glyph glyph-name="ugrave" unicode="&#xf9;" horiz-adv-x="624" 
d="M2 692h69v-461q0 -42 16 -79t44 -65t65.5 -44t79.5 -16t79 16t65 44t44 65t16 79v461h69v-420q0 -56 -21.5 -106t-58.5 -87.5t-87 -59t-106 -21.5q-57 0 -106.5 21.5t-87 59t-59 87.5t-21.5 106v420zM300 752h-15l-87 80h47z" />
    <glyph glyph-name="uacute" unicode="&#xfa;" horiz-adv-x="624" 
d="M2 692h69v-461q0 -42 16 -79t44 -65t65.5 -44t79.5 -16t79 16t65 44t44 65t16 79v461h69v-420q0 -56 -21.5 -106t-58.5 -87.5t-87 -59t-106 -21.5q-57 0 -106.5 21.5t-87 59t-59 87.5t-21.5 106v420zM290 832h47l-87 -80h-16z" />
    <glyph glyph-name="ucircumflex" unicode="&#xfb;" horiz-adv-x="624" 
d="M2 692h69v-461q0 -42 16 -79t44 -65t65.5 -44t79.5 -16t79 16t65 44t44 65t16 79v461h69v-420q0 -56 -21.5 -106t-58.5 -87.5t-87 -59t-106 -21.5q-57 0 -106.5 21.5t-87 59t-59 87.5t-21.5 106v420zM193 750l74 62h18l74 -62h-44l-39 45l-39 -45h-44z" />
    <glyph glyph-name="udieresis" unicode="&#xfc;" horiz-adv-x="624" 
d="M2 692h69v-461q0 -42 16 -79t44 -65t65.5 -44t79.5 -16t79 16t65 44t44 65t16 79v461h69v-420q0 -56 -21.5 -106t-58.5 -87.5t-87 -59t-106 -21.5q-57 0 -106.5 21.5t-87 59t-59 87.5t-21.5 106v420zM247 791q8 0 13.5 -5.5t5.5 -13.5t-5.5 -13.5t-13.5 -5.5t-13.5 5.5
t-5.5 13.5q0 19 19 19zM318 791q19 0 19 -19q0 -8 -5.5 -13.5t-13.5 -5.5t-13.5 5.5t-5.5 13.5q0 19 19 19z" />
    <glyph glyph-name="yacute" unicode="&#xfd;" horiz-adv-x="564" 
d="M81 698l198 -329l179 329h32l-200 -369v-2v-328h-69v331l-117 195t-104 173h81zM292 832h47l-87 -80h-16z" />
    <glyph glyph-name="ydieresis" unicode="&#xff;" horiz-adv-x="564" 
d="M81 698l198 -329l179 329h32l-200 -369v-2v-328h-69v331l-117 195t-104 173h81zM247 791q19 0 19 -19q0 -8 -5.5 -13.5t-13.5 -5.5t-13.5 5.5t-5.5 13.5t5.5 13.5t13.5 5.5zM318 791q8 0 14 -5.5t6 -13.5t-6 -13.5t-14 -5.5t-13.5 5.5t-5.5 13.5t5.5 13.5t13.5 5.5z" />
    <glyph glyph-name="hungarumlaut" unicode="&#x2dd;" horiz-adv-x="208" 
d="M154 787l-67 -87h-18l39 87h46zM96 787l-66 -87h-18l39 87h45z" />
    <glyph glyph-name="endash" unicode="&#x2013;" horiz-adv-x="570" 
d="M40 387h473v-49h-473v49v0z" />
    <glyph glyph-name="emdash" unicode="&#x2014;" horiz-adv-x="662" 
d="M40 387h562v-49h-562v49v0z" />
    <glyph glyph-name="quoteleft" unicode="&#x2018;" horiz-adv-x="176" 
d="M12 787h45l39 -87h-18l-66 87v0z" />
    <glyph glyph-name="quoteright" unicode="&#x2019;" horiz-adv-x="176" 
d="M96 787l-66 -87h-18l39 87h45z" />
    <glyph glyph-name="quotesinglbase" unicode="&#x201a;" horiz-adv-x="197" 
d="M77 33h66l-106 -120h-28l68 120v0z" />
    <glyph glyph-name="quotedblleft" unicode="&#x201c;" horiz-adv-x="208" 
d="M12 787h45l39 -87h-18l-66 87v0zM69 787h45l40 -87h-19l-66 87v0z" />
    <glyph glyph-name="quotedblright" unicode="&#x201d;" horiz-adv-x="208" 
d="M154 787l-67 -87h-18l39 87h46zM96 787l-66 -87h-18l39 87h45z" />
    <glyph glyph-name="quotedblbase" unicode="&#x201e;" horiz-adv-x="292" 
d="M77 33h66l-106 -120h-28l68 120v0zM172 33h66l-106 -120h-28l68 120v0z" />
    <glyph glyph-name="guilsinglleft" unicode="&#x2039;" 
 />
    <glyph glyph-name="guilsinglright" unicode="&#x203a;" 
 />
    <glyph glyph-name="fraction" unicode="&#x2044;" 
 />
    <glyph glyph-name="fraction" unicode="&#x2215;" 
 />
    <glyph glyph-name="uniE002" unicode="&#xe002;" 
 />
    <glyph glyph-name="uniE003" unicode="&#xe003;" 
 />
    </font>
</defs>
</svg>
