<?xml version="1.0" encoding="UTF-8"?>
<!DOCTYPE svg PUBLIC "-//W3C//DTD SVG 1.1//EN" "http://www.w3.org/Graphics/SVG/1.1/DTD/svg11.dtd">
<!-- Creator: CorelDRAW 2020 -->
<svg xmlns="http://www.w3.org/2000/svg" xml:space="preserve" width="84.6667mm" height="84.6667mm" version="1.1" style="shape-rendering:geometricPrecision; text-rendering:geometricPrecision; image-rendering:optimizeQuality; fill-rule:evenodd; clip-rule:evenodd"
viewBox="0 0 364.12 364.12"
 xmlns:xlink="http://www.w3.org/1999/xlink"
 xmlns:xodm="http://www.corel.com/coreldraw/odm/2003">
 <defs>
  <style type="text/css">
   <![CDATA[
    .fil0 {fill:none}
    .fil1 {fill:black;fill-rule:nonzero}
   ]]>
  </style>
 </defs>
 <g id="Layer_x0020_1">
  <metadata id="CorelCorpID_0Corel-Layer"/>
  <g id="_744646368">
   <rect class="fil0" x="-0" y="-0" width="364.12" height="364.12"/>
   <path class="fil1" d="M294.86 213.91c-7.2,-7.5 -15.89,-11.51 -25.1,-11.51 -9.13,0 -17.9,3.94 -25.4,11.44l-23.47 23.39c-1.93,-1.04 -3.86,-2 -5.72,-2.97 -2.67,-1.34 -5.2,-2.6 -7.35,-3.94 -21.98,-13.96 -41.96,-32.15 -61.12,-55.69 -9.28,-11.73 -15.52,-21.61 -20.05,-31.63 6.09,-5.57 11.73,-11.36 17.23,-16.93 2.08,-2.08 4.16,-4.23 6.24,-6.31 15.59,-15.59 15.59,-35.79 0,-51.39l-20.27 -20.27c-2.3,-2.3 -4.68,-4.68 -6.91,-7.05 -4.46,-4.6 -9.13,-9.36 -13.96,-13.81 -7.2,-7.13 -15.82,-10.92 -24.88,-10.92 -9.06,0 -17.82,3.79 -25.25,10.92 -0.07,0.07 -0.07,0.07 -0.15,0.15l-25.25 25.47c-9.51,9.51 -14.93,21.09 -16.11,34.53 -1.78,21.68 4.6,41.88 9.51,55.1 12.03,32.45 30,62.53 56.81,94.75 32.53,38.84 71.66,69.51 116.36,91.12 17.08,8.09 39.88,17.67 65.35,19.31 1.56,0.07 3.19,0.15 4.68,0.15 17.15,0 31.56,-6.16 42.85,-18.42 0.07,-0.15 0.22,-0.22 0.3,-0.37 3.86,-4.68 8.32,-8.91 13,-13.44 3.19,-3.04 6.46,-6.24 9.65,-9.58 7.35,-7.65 11.21,-16.56 11.21,-25.69 0,-9.21 -3.94,-18.05 -11.44,-25.47l-40.77 -40.92zm26.58 78.19c-0.07,0 -0.07,0.07 0,0 -2.9,3.12 -5.87,5.94 -9.06,9.06 -4.83,4.6 -9.73,9.43 -14.33,14.85 -7.5,8.02 -16.34,11.81 -27.92,11.81 -1.11,0 -2.3,0 -3.42,-0.07 -22.06,-1.41 -42.55,-10.02 -57.92,-17.38 -42.03,-20.35 -78.94,-49.23 -109.61,-85.84 -25.32,-30.52 -42.25,-58.74 -53.47,-89.04 -6.91,-18.49 -9.43,-32.9 -8.32,-46.49 0.74,-8.69 4.08,-15.89 10.25,-22.05l25.32 -25.32c3.64,-3.42 7.5,-5.27 11.29,-5.27 4.68,0 8.47,2.82 10.84,5.2 0.07,0.07 0.15,0.15 0.22,0.22 4.53,4.23 8.84,8.61 13.37,13.29 2.3,2.38 4.68,4.75 7.05,7.2l20.27 20.27c7.87,7.87 7.87,15.15 0,23.02 -2.15,2.15 -4.23,4.31 -6.39,6.39 -6.24,6.39 -12.18,12.33 -18.64,18.12 -0.15,0.15 -0.3,0.22 -0.37,0.37 -6.39,6.39 -5.2,12.62 -3.86,16.86 0.07,0.22 0.15,0.45 0.22,0.67 5.27,12.77 12.7,24.8 23.99,39.13l0.07 0.07c20.5,25.25 42.1,44.93 65.94,60 3.04,1.93 6.16,3.49 9.13,4.98 2.67,1.34 5.2,2.6 7.35,3.94 0.3,0.15 0.59,0.37 0.89,0.52 2.52,1.26 4.9,1.86 7.35,1.86 6.16,0 10.02,-3.86 11.29,-5.12l25.4 -25.4c2.52,-2.52 6.53,-5.57 11.21,-5.57 4.6,0 8.39,2.9 10.69,5.42 0.07,0.07 0.07,0.07 0.15,0.15l40.92 40.92c7.65,7.57 7.65,15.37 0.07,23.24z"/>
  </g>
 </g>
</svg>
