<?xml version="1.0" encoding="UTF-8"?>
<!DOCTYPE svg PUBLIC "-//W3C//DTD SVG 1.1//EN" "http://www.w3.org/Graphics/SVG/1.1/DTD/svg11.dtd">
<!-- Creator: CorelDRAW 2020 -->
<svg xmlns="http://www.w3.org/2000/svg" xml:space="preserve" width="84.6667mm" height="84.6667mm" version="1.1" style="shape-rendering:geometricPrecision; text-rendering:geometricPrecision; image-rendering:optimizeQuality; fill-rule:evenodd; clip-rule:evenodd"
viewBox="0 0 465.13 465.13"
 xmlns:xlink="http://www.w3.org/1999/xlink"
 xmlns:xodm="http://www.corel.com/coreldraw/odm/2003">
 <defs>
  <style type="text/css">
   <![CDATA[
    .fil0 {fill:none}
    .fil1 {fill:#F90A10}
   ]]>
  </style>
 </defs>
 <g id="Layer_x0020_1">
  <metadata id="CorelCorpID_0Corel-Layer"/>
  <g id="_1052221336">
   <rect class="fil0" x="-0" y="-0" width="465.13" height="465.13"/>
   <g>
    <path class="fil1" d="M50.3 97.62l0 11.39c5.26,10.52 5.26,24.54 29.79,32.42 0.88,13.14 0,31.55 0,45.57l0 181.39c0,26.29 -3.5,55.21 16.65,74.48 14.02,12.27 22.78,10.52 30.67,14.02l210.31 0c4.38,-1.75 11.39,-2.63 17.53,-5.26 14.02,-7.89 24.54,-21.03 28.04,-39.43 4.38,-18.4 0,-262.01 1.75,-269.02 0,-2.63 5.26,-2.63 10.51,-6.13 7.01,-4.38 11.39,-9.64 14.9,-16.65l3.5 -8.76c0,-0.88 0,-0.88 0,-0.88 0,0 0,-0.88 0,-0.88l0.88 -1.75 0 -10.51c-1.75,-2.63 -2.63,-8.76 -4.38,-12.27 -1.75,-4.38 -3.5,-6.13 -6.13,-9.64 -5.26,-4.38 -11.39,-9.64 -21.03,-11.39 -11.39,-3.51 -48.19,-1.75 -62.21,-1.75 0,-14.02 -0.88,-28.04 -7.89,-37.68 -12.27,-14.9 -17.52,-12.27 -28.04,-16.65l-105.15 0c-6.13,2.63 -9.64,1.75 -16.65,6.13 -19.28,13.14 -19.28,28.04 -19.28,48.2 -14.02,0 -51.7,-1.75 -63.09,1.75 -12.27,2.63 -21.91,11.39 -26.29,21.91 -1.75,2.63 -2.63,7.89 -4.38,11.39zm312.83 306.69c0.88,-86.75 0,-173.5 0,-261.13l-262.01 0c-0.88,23.66 0,49.07 0,72.73l0 146.34c0,22.78 -3.5,49.95 9.64,63.97 13.14,14.02 40.31,9.64 63.09,9.64l147.21 0c13.14,0 21.03,0.88 29.79,-7.01 4.38,-3.51 13.14,-14.02 12.27,-24.54zm-198.04 -341.75l134.95 0c0,-7.01 0.88,-16.65 -2.63,-22.78 -2.63,-5.26 -7.89,-9.64 -14.9,-10.51 -6.13,-0.88 -92.89,-0.88 -99.9,0 -19.28,2.63 -17.53,21.91 -17.53,33.3zm-77.11 21.91c-11.39,0.88 -20.15,13.14 -14.9,26.29 5.26,12.27 18.4,10.52 34.17,10.52 21.03,0 260.25,1.75 269.89,0 11.39,-1.75 21.03,-14.9 14.02,-27.16 -7.01,-12.27 -18.4,-10.51 -34.17,-10.51 -21.91,0 -259.38,-0.88 -269.02,0.88z"/>
    <path class="fil1" d="M290.4 172.1c-8.76,3.5 -6.13,13.14 -6.13,23.66l0 179.64c0,13.14 7.01,17.53 14.9,14.02 7.01,-3.5 6.13,-14.9 6.13,-23.66l0 -179.64c0,-13.14 -7.01,-17.53 -14.9,-14.02z"/>
    <path class="fil1" d="M159.84 184.37l0 192.78c0,17.53 21.03,17.53 21.03,0l0 -192.78c0,-18.4 -21.03,-18.4 -21.03,0z"/>
    <path class="fil1" d="M222.05 184.37l0 192.78c0,17.53 21.03,17.53 21.03,0l0 -192.78c0,-18.4 -21.03,-18.4 -21.03,0z"/>
   </g>
  </g>
 </g>
</svg>
