<?xml version="1.0" encoding="UTF-8"?>
<!DOCTYPE svg PUBLIC "-//W3C//DTD SVG 1.1//EN" "http://www.w3.org/Graphics/SVG/1.1/DTD/svg11.dtd">
<!-- Creator: CorelDRAW 2020 -->
<svg xmlns="http://www.w3.org/2000/svg" xml:space="preserve" width="84.6667mm" height="84.6667mm" version="1.1" style="shape-rendering:geometricPrecision; text-rendering:geometricPrecision; image-rendering:optimizeQuality; fill-rule:evenodd; clip-rule:evenodd"
viewBox="0 0 408.47 408.47"
 xmlns:xlink="http://www.w3.org/1999/xlink"
 xmlns:xodm="http://www.corel.com/coreldraw/odm/2003">
 <defs>
  <style type="text/css">
   <![CDATA[
    .fil0 {fill:none}
    .fil1 {fill:black;fill-rule:nonzero}
   ]]>
  </style>
 </defs>
 <g id="Layer_x0020_1">
  <metadata id="CorelCorpID_0Corel-Layer"/>
  <g id="_1154736368">
   <rect class="fil0" x="-0" y="-0" width="408.47" height="408.47"/>
   <g>
    <path class="fil1" d="M204.24 33.23c94.31,0 171.01,76.7 171.01,170.97 0,23.04 -4.51,45.4 -13.46,66.48 -8.62,20.36 -20.96,38.65 -36.69,54.38 -15.73,15.73 -34.02,28.11 -54.38,36.73 -21.04,8.94 -43.44,13.46 -66.48,13.46 -23.04,0 -45.4,-4.51 -66.48,-13.46 -20.36,-8.62 -38.65,-21 -54.38,-36.73 -15.73,-15.73 -28.07,-34.06 -36.69,-54.38 -8.94,-21.08 -13.46,-43.44 -13.46,-66.48 0,-94.27 76.7,-170.97 171.01,-170.97l0 0zm0 -24.63c-107.88,0 -195.64,87.76 -195.64,195.6 0,107.84 87.76,195.68 195.64,195.68 107.88,0 195.64,-87.8 195.64,-195.68 0,-107.84 -87.76,-195.6 -195.64,-195.6l0 0 0 0zm13.06 303.6l-28.83 0 0 -30.3 28.83 0 0 30.3 0 0zm47.07 -136.19c-3.07,6.43 -9.62,14.45 -19.6,24.08 -10.02,9.62 -16.65,16.45 -19.88,20.48 -3.27,4.07 -5.75,8.9 -7.43,14.57 -1.68,5.63 -2.44,13.22 -2.24,22.72l-26.15 0c0,-11.1 0.88,-19.96 2.67,-26.59 1.8,-6.63 4.47,-12.42 8.03,-17.37 3.55,-4.95 9.98,-12.22 19.32,-21.84 9.3,-9.58 15.29,-16.57 17.97,-20.92 2.68,-4.35 3.99,-10.82 3.99,-19.44 0,-8.62 -3.07,-16.25 -9.22,-22.88 -6.15,-6.63 -15.05,-9.94 -26.71,-9.94 -26.35,0 -39.49,15.65 -39.49,46.91l-26.15 0c0.4,-14.25 2.08,-25.11 5.03,-32.54 2.95,-7.43 7.71,-14.05 14.25,-19.88 6.55,-5.83 13.81,-10.14 21.84,-12.94 8.03,-2.76 16.49,-4.15 25.39,-4.15 18.01,0 33.02,5.31 45,15.89 11.98,10.58 17.97,24.71 17.97,42.32 0.04,7.95 -1.52,15.09 -4.59,21.52l0 0 0 0z"/>
   </g>
  </g>
 </g>
</svg>
