<?xml version="1.0" encoding="UTF-8"?>
<!DOCTYPE svg PUBLIC "-//W3C//DTD SVG 1.1//EN" "http://www.w3.org/Graphics/SVG/1.1/DTD/svg11.dtd">
<!-- Creator: CorelDRAW 2020 -->
<svg xmlns="http://www.w3.org/2000/svg" xml:space="preserve" width="84.6667mm" height="84.6667mm" version="1.1" style="shape-rendering:geometricPrecision; text-rendering:geometricPrecision; image-rendering:optimizeQuality; fill-rule:evenodd; clip-rule:evenodd"
viewBox="0 0 465.13 465.13"
 xmlns:xlink="http://www.w3.org/1999/xlink"
 xmlns:xodm="http://www.corel.com/coreldraw/odm/2003">
 <defs>
  <style type="text/css">
   <![CDATA[
    .str0 {stroke:#2B2A29;stroke-width:16.48;stroke-miterlimit:22.9256}
    .fil0 {fill:none}
   ]]>
  </style>
 </defs>
 <g id="Layer_x0020_1">
  <metadata id="CorelCorpID_0Corel-Layer"/>
  <g id="_1740036824">
   <rect class="fil0" x="-0" y="-0" width="465.13" height="465.13"/>
   <g>
    <path class="fil0 str0" d="M104.18 66.47l0 -0c70.61,-70.61 186.16,-70.61 256.77,0l0 0c70.61,70.61 70.61,186.16 0,256.77l-128.39 128.39 -128.39 -128.39c-70.61,-70.61 -70.61,-186.16 0,-256.77zm71.27 71.26c31.55,-31.55 82.69,-31.55 114.24,0 31.55,31.55 31.55,82.69 0,114.24 -31.55,31.55 -82.69,31.55 -114.24,0 -31.55,-31.55 -31.55,-82.69 0,-114.24z"/>
   </g>
  </g>
 </g>
</svg>
