<?xml version="1.0" encoding="UTF-8"?>
<!DOCTYPE svg PUBLIC "-//W3C//DTD SVG 1.1//EN" "http://www.w3.org/Graphics/SVG/1.1/DTD/svg11.dtd">
<!-- Creator: CorelDRAW 2020 -->
<svg xmlns="http://www.w3.org/2000/svg" xml:space="preserve" width="84.6667mm" height="84.6667mm" version="1.1" style="shape-rendering:geometricPrecision; text-rendering:geometricPrecision; image-rendering:optimizeQuality; fill-rule:evenodd; clip-rule:evenodd"
viewBox="0 0 415.23 415.23"
 xmlns:xlink="http://www.w3.org/1999/xlink"
 xmlns:xodm="http://www.corel.com/coreldraw/odm/2003">
 <defs>
  <style type="text/css">
   <![CDATA[
    .fil0 {fill:none}
    .fil1 {fill:black;fill-rule:nonzero}
    .fil2 {fill:#F90A10;fill-rule:nonzero}
   ]]>
  </style>
 </defs>
 <g id="Layer_x0020_1">
  <metadata id="CorelCorpID_0Corel-Layer"/>
  <g id="_1150442904">
   <rect class="fil0" x="-0" y="-0" width="415.23" height="415.23"/>
   <g>
    <path class="fil1" d="M404.75 202.36l-65.28 -73.43c-3.25,-3.65 -7.91,-5.75 -12.8,-5.75l-59.71 0 0 -2.01c0,-16.67 -13.56,-30.23 -30.22,-30.23l-200.36 -0c-16.67,0 -30.23,13.57 -30.23,30.23l0 157.13c0,9.93 8.08,18.02 18.01,18.02l46.44 0c3.7,16 18.04,27.97 35.14,27.97 17.11,0 31.44,-11.97 35.14,-27.97l112.79 0 13.28 0 47.91 0c3.7,16 18.04,27.97 35.14,27.97 17.11,0 31.44,-11.97 35.14,-27.97l6.8 0c9.44,0 17.12,-7.68 17.12,-17.12l0 -65.46c-0.01,-4.2 -1.54,-8.24 -4.33,-11.38zm-12.8 80.68l-6.25 0c-2.51,-17.47 -17.54,-30.95 -35.69,-30.95 -18.15,0 -33.18,13.48 -35.69,30.95l-47.36 0 0 -146.58 59.71 0c1.09,0 2.14,0.47 2.87,1.29l10.45 11.76 -29.7 0c-8.83,0 -16.01,7.18 -16.01,16.01l0 34.85c0,8.83 7.18,16.01 16.01,16.01l85.5 0 0 62.81c0,2.12 -1.71,3.84 -3.84,3.84zm-250.52 0c-2.51,-17.47 -17.54,-30.95 -35.69,-30.95 -18.15,0 -33.18,13.48 -35.69,30.95l-45.89 0c-2.61,0 -4.73,-2.12 -4.73,-4.73l0 -41.91 234.25 0 0 46.64 -112.24 0 0 0zm-105.06 -178.81l200.36 0c9.34,0 16.94,7.6 16.94,16.95l0 2.01 0 99.94 -234.25 0 0 -101.94c0,-9.34 7.6,-16.95 16.95,-16.95z"/>
    <polygon class="fil2" points="235.44,118.66 235.44,131.94 30.74,131.94 30.74,118.66 "/>
    <path class="fil2" d="M105.74 311c-12.58,0 -22.82,-10.23 -22.82,-22.82 0,-12.58 10.24,-22.82 22.82,-22.82 12.58,0 22.82,10.23 22.82,22.82 0,12.58 -10.24,22.82 -22.82,22.82z"/>
    <path class="fil2" d="M387.65 203.11l-77.35 0c-1.5,0 -2.73,-1.23 -2.73,-2.73l0 -34.85c0,-1.5 1.22,-2.73 2.73,-2.73l41.51 -0 35.84 40.31z"/>
    <path class="fil2" d="M350.01 311c-12.58,0 -22.82,-10.23 -22.82,-22.82 0,-12.58 10.23,-22.82 22.82,-22.82 12.58,0 22.82,10.23 22.82,22.82 0,12.58 -10.24,22.82 -22.82,22.82z"/>
    <polygon class="fil2" points="235.44,149.8 235.44,163.08 30.74,163.08 30.74,149.8 "/>
    <polygon class="fil2" points="235.44,180.94 235.44,194.22 30.74,194.22 30.74,180.94 "/>
   </g>
  </g>
 </g>
</svg>
