<?xml version="1.0" encoding="UTF-8"?>
<!DOCTYPE svg PUBLIC "-//W3C//DTD SVG 1.1//EN" "http://www.w3.org/Graphics/SVG/1.1/DTD/svg11.dtd">
<!-- Creator: CorelDRAW 2020 -->
<svg xmlns="http://www.w3.org/2000/svg" xml:space="preserve" width="84.6667mm" height="84.6667mm" version="1.1" style="shape-rendering:geometricPrecision; text-rendering:geometricPrecision; image-rendering:optimizeQuality; fill-rule:evenodd; clip-rule:evenodd"
viewBox="0 0 670.15 670.15"
 xmlns:xlink="http://www.w3.org/1999/xlink"
 xmlns:xodm="http://www.corel.com/coreldraw/odm/2003">
 <defs>
  <style type="text/css">
   <![CDATA[
    .fil0 {fill:none}
    .fil2 {fill:#F90A10}
    .fil1 {fill:#2B2A29;fill-rule:nonzero}
   ]]>
  </style>
 </defs>
 <g id="Layer_x0020_1">
  <metadata id="CorelCorpID_0Corel-Layer"/>
  <g id="_-1308608424">
   <rect class="fil0" x="-0" y="-0" width="670.15" height="670.15"/>
   <g>
    <path class="fil1" d="M98.47 43.1l473.21 0c23.52,0 44.89,9.61 60.37,25.1 15.48,15.48 25.1,36.86 25.1,60.37l0 292.71c0,23.52 -9.61,44.89 -25.1,60.37 -15.48,15.48 -36.86,25.1 -60.37,25.1l-281.75 0 -112.7 116.54c-4.69,4.88 -12.46,5.03 -17.33,0.34 -2.5,-2.41 -3.76,-5.62 -3.76,-8.84l-0.03 0 0 -108.04 -57.63 0c-23.52,0 -44.89,-9.61 -60.37,-25.1 -15.48,-15.48 -25.1,-36.85 -25.1,-60.37l0 -292.71c0,-23.51 9.61,-44.89 25.1,-60.37 15.48,-15.48 36.85,-25.1 60.37,-25.1zm473.21 24.58l-473.21 0c-16.73,0 -31.95,6.85 -42.99,17.89 -11.04,11.04 -17.89,26.26 -17.89,42.99l0 292.71c0,16.73 6.85,31.95 17.89,42.99 11.04,11.04 26.26,17.89 42.99,17.89l69.92 0c6.79,0 12.29,5.5 12.29,12.29l0 89.99 94.65 -97.88c2.26,-2.69 5.64,-4.4 9.43,-4.4l286.92 0c16.73,0 31.95,-6.85 42.99,-17.89 11.04,-11.04 17.89,-26.26 17.89,-42.99l0 -292.71c0,-16.73 -6.85,-31.95 -17.89,-42.99 -11.04,-11.04 -26.26,-17.89 -42.99,-17.89z"/>
    <polygon class="fil2" points="335.08,115.56 372.24,230.7 493.24,230.47 395.21,301.4 432.83,416.4 335.08,345.09 237.33,416.4 274.94,301.4 176.92,230.47 297.91,230.7 "/>
   </g>
  </g>
 </g>
</svg>
