<?xml version="1.0" encoding="UTF-8"?>
<!DOCTYPE svg PUBLIC "-//W3C//DTD SVG 1.1//EN" "http://www.w3.org/Graphics/SVG/1.1/DTD/svg11.dtd">
<!-- Creator: CorelDRAW 2020 -->
<svg xmlns="http://www.w3.org/2000/svg" xml:space="preserve" width="84.6667mm" height="84.6667mm" version="1.1" style="shape-rendering:geometricPrecision; text-rendering:geometricPrecision; image-rendering:optimizeQuality; fill-rule:evenodd; clip-rule:evenodd"
viewBox="0 0 477.26 477.26"
 xmlns:xlink="http://www.w3.org/1999/xlink"
 xmlns:xodm="http://www.corel.com/coreldraw/odm/2003">
 <defs>
  <style type="text/css">
   <![CDATA[
    .fil0 {fill:none}
    .fil2 {fill:#F90A10}
    .fil3 {fill:#FEFEFE;fill-rule:nonzero}
    .fil1 {fill:black;fill-rule:nonzero}
   ]]>
  </style>
 </defs>
 <g id="Layer_x0020_1">
  <metadata id="CorelCorpID_0Corel-Layer"/>
  <g id="_1208888024">
   <rect class="fil0" x="-0" y="-0" width="477.26" height="477.26"/>
   <path class="fil1" d="M250.35 230.68l0 201.84c10.92,-5.58 34.11,-17.85 59.13,-31.2 38.33,-20.44 81.02,-43.46 90.04,-48.62l0.3 -0.15 1.33 -0.63c9.12,-4.32 13.58,-6.42 15.29,-9.55 1.75,-3.21 1.74,-8.86 1.71,-19.91 -0.01,-5.06 -0.02,1.63 -0.02,-4.11l0 -172.07c-12.95,6.2 -47.39,23.5 -80.28,40.02 -30.41,15.28 -59.52,29.9 -69.17,34.49l-2.06 1.01c-5.04,2.46 -14.62,7.14 -16.27,8.86zm-8.46 208.63l0 -210.28 0.23 -0.69c1.57,-4.72 14.31,-10.94 20.79,-14.1l2.12 -1.04c10.9,-5.19 39.34,-19.48 69.04,-34.39 40.92,-20.55 84.2,-42.3 87.25,-43.06l5.25 -1.31 0 183.95c0,8.62 -0.02,1.64 -0.01,4.11 0.03,12.47 0.04,18.85 -2.74,23.94 -3.03,5.56 -8.3,8.05 -19.08,13.15l-1.11 0.53c-8.84,5.04 -51.54,28.06 -90.19,48.67 -31.81,16.96 -60.79,32.25 -65.62,34.4l-5.93 2.64 0 -6.48zm-169.37 -311.89l1.63 0.85c2.14,1.12 4.22,2.2 5.81,3.22 3,1.32 8.86,4.34 15.36,7.67 11.3,5.8 23.89,13.1 24.5,13.02l161.48 -81.9 0.36 -0.12c2.83,-0.94 4.95,-1.97 7,-2.99 0.23,-0.2 0.46,-0.37 0.68,-0.52 -4.14,-2.15 -9.15,-4.94 -14.46,-7.9 -14.35,-7.98 -30.96,-17.23 -35.68,-17.23l-0.3 0 -0.4 -0.07c-3.16,-0.53 -11.47,3.82 -18.5,7.49 -3.96,2.07 -7.55,3.94 -10.23,4.89 -9.62,5.03 -20.5,11.03 -31.66,17.18 -17.83,9.83 -36.4,20.08 -54.41,28.73l-51.2 27.65zm-2.26 8.35c-3.54,-1.85 -7.25,-3.78 -9.1,-5.63l-4.01 -4.01 62.58 -33.79 0.18 -0.08c17.51,-8.41 36.21,-18.72 54.16,-28.62 10.91,-6.02 21.53,-11.88 32.09,-17.39l0.29 -0.15 0.33 -0.11c2.04,-0.68 5.5,-2.49 9.33,-4.49 7.98,-4.17 17.4,-9.08 23.34,-8.41 7.02,0.23 24.45,9.92 39.52,18.31 8.64,4.81 16.48,9.17 20.54,10.79l5.93 2.37 -5.96 5.96 -0.35 0.23c-0.84,0.56 -1.6,0.96 -2.28,1.21 -0.79,0.66 -1.5,1.02 -2.21,1.37l-0.01 -0.01c-0.26,0.13 -0.52,0.26 -0.61,0.36l-0.48 0.48 -0.66 0.33 0 0.02c-2.3,1.15 -4.61,2.3 -8.23,3.53l-161.04 81.67 -0.02 0c-3.4,1.7 -18.99,-6.31 -32.11,-13.05 -6.53,-3.36 -12.39,-6.37 -15.19,-7.57l-0.37 -0.16 -0.31 -0.21c-1.16,-0.78 -3.23,-1.85 -5.37,-2.97zm114.75 48.14c7.46,4.07 19.66,10.55 30.37,16.01 9.84,5.01 18.24,9.11 20.05,9.47l0.39 0.08 0.43 0.19c4.26,1.83 13.34,-2.95 20.58,-6.77 2.58,-1.36 4.96,-2.62 7.05,-3.52 5.1,-2.83 9.98,-5.41 14.92,-7.88 4.83,-2.42 9.71,-4.71 14.89,-7.02 9.78,-5.18 19.31,-10.09 29.01,-15.01 8.51,-4.32 18.75,-9.44 29.61,-14.87 1.96,-1.2 9.39,-4.97 18.43,-9.56 11.74,-5.96 26.27,-13.34 34.04,-17.6l-50.96 -27.52c-3.74,-1.04 -18.66,7.98 -24.83,11.7l-1.32 0.8 -0.36 0.16c-5.08,2.26 -9.92,4.54 -14.79,6.97 -4.79,2.39 -9.63,4.96 -14.81,7.84l-0.08 0.05c-9.83,5.21 -19.96,10.12 -30.08,15.04 -10.03,4.87 -20.07,9.75 -29.81,14.91 -9.61,5.09 -19.72,10.29 -30.03,15.44 -7.62,3.81 -15.22,7.53 -22.68,11.09zm26.54 23.54c-16.17,-8.25 -35.85,-18.89 -38.04,-20.35l-6.22 -4.14 6.78 -3.19c9.79,-4.61 19.83,-9.49 29.85,-14.49 9.85,-4.92 19.9,-10.1 29.87,-15.37 9.83,-5.21 19.96,-10.12 30.08,-15.04 10.03,-4.87 20.07,-9.75 29.82,-14.91 5.16,-2.86 10.08,-5.46 15.06,-7.95 4.8,-2.4 9.64,-4.68 14.79,-6.98l1.09 -0.66c7.3,-4.41 25.13,-15.19 32.49,-12.24l0.24 0.1c20.9,11.34 41.84,22.6 62.77,33.89l-4.01 4.01c-2.67,2.67 -24.87,13.94 -41.58,22.42 -9.25,4.69 -16.77,8.51 -17.79,9.19l-0.2 0.13 -0.26 0.13c-9.8,4.9 -19.06,9.53 -29.79,14.97 -9.6,4.87 -19.08,9.75 -28.87,14.94l-0.26 0.12c-5.08,2.26 -9.92,4.54 -14.79,6.97 -4.79,2.39 -9.63,4.96 -14.81,7.84l-0.22 0.12 -0.17 0.07c-1.79,0.77 -4.09,1.98 -6.6,3.3 -8.67,4.57 -19.5,10.28 -27.41,7.23 -3.11,-0.85 -11.88,-5.07 -21.8,-10.13zm15.42 225.19l1.1 -201.53 -56.05 -28.02 0 62.29c0,1.18 0.06,2.25 0.12,3.37 0.25,4.66 0.53,10.11 -1.73,14.64l-0.19 0.38 -0.29 0.36c-5.61,7.01 -11.65,5.4 -17.65,0.6 -3.05,-2.44 -5.93,-5.69 -8.69,-8.8 -3.14,-3.55 -6.11,-6.89 -7.86,-7.57 -3.02,-0.38 -5.16,0.07 -7.37,0.54 -3.13,0.66 -6.4,1.35 -11.76,0.68l-0.87 -0.11 -0.78 -0.47c-6.81,-4.08 -6.11,-27.47 -5.68,-42.05 0.08,-2.83 0.16,-5.27 0.16,-7.64l0 -48.23c-6.21,-3.4 -22.42,-11.74 -35.88,-18.34 -5.79,-2.84 -10.98,-5.34 -14.41,-6.92l0 172.55 -0.05 6.89c-0.15,18.37 -0.16,19.2 18.44,28.5l0.06 0.03c25.39,12.69 53.08,26.54 78.4,40.35l0.25 0.14 0.18 0.13c3.23,2.31 16.71,9.76 31.49,17.7 14.84,7.97 30.83,16.37 39.06,20.54zm9.54 -204.11l-1.18 216.6 -5.5 -1.83c-2.2,-0.73 -25.34,-12.71 -45.91,-23.76 -14.76,-7.93 -28.35,-15.45 -32.19,-18.13 -25.25,-13.77 -52.71,-27.5 -77.9,-40.09l-0.06 -0.03c-23.3,-11.65 -23.29,-12.71 -23.1,-36.1 0.01,-1.14 0.02,-2.28 0.02,-6.83l0 -182.76 4.23 0c2.08,0 11.46,4.25 22.33,9.57 15.68,7.69 35.08,17.73 38.58,19.83l2.06 1.24 0 53.06c0,1.5 -0.09,4.45 -0.19,7.87 -0.36,11.96 -0.91,30.72 1.17,34.13 3.34,0.26 5.6,-0.21 7.78,-0.67 3.05,-0.64 5.97,-1.26 10.64,-0.59l0.31 0.04 0.25 0.07c4.05,1.16 7.93,5.53 12.05,10.18 2.54,2.87 5.2,5.86 7.63,7.81 2.1,1.68 4.06,2.49 5.53,1.04 1.04,-2.55 0.83,-6.57 0.65,-10.02 -0.08,-1.44 -0.15,-2.81 -0.15,-3.8l0 -75.93 72.96 36.48 -0.01 2.61z"/>
   <circle class="fil2" cx="401.11" cy="351.68" r="61.52"/>
   <polygon class="fil3" points="371.02,341.23 393.37,363.59 435.68,321.28 447.64,333.24 393.37,387.5 359.06,353.19 "/>
  </g>
 </g>
</svg>
