<?xml version="1.0" encoding="UTF-8"?>
<!DOCTYPE svg PUBLIC "-//W3C//DTD SVG 1.1//EN" "http://www.w3.org/Graphics/SVG/1.1/DTD/svg11.dtd">
<!-- Creator: CorelDRAW 2020 -->
<svg xmlns="http://www.w3.org/2000/svg" xml:space="preserve" width="84.6667mm" height="84.6667mm" version="1.1" style="shape-rendering:geometricPrecision; text-rendering:geometricPrecision; image-rendering:optimizeQuality; fill-rule:evenodd; clip-rule:evenodd"
viewBox="0 0 540.05 540.05"
 xmlns:xlink="http://www.w3.org/1999/xlink"
 xmlns:xodm="http://www.corel.com/coreldraw/odm/2003">
 <defs>
  <style type="text/css">
   <![CDATA[
    .fil0 {fill:none}
    .fil1 {fill:black;fill-rule:nonzero}
   ]]>
  </style>
 </defs>
 <g id="Layer_x0020_1">
  <metadata id="CorelCorpID_0Corel-Layer"/>
  <g id="_-1308122672">
   <rect class="fil0" x="-0" y="-0" width="540.05" height="540.05"/>
   <path class="fil1" d="M526.42 263.18l-84.91 -95.5c-4.22,-4.75 -10.29,-7.48 -16.65,-7.48l-77.66 0 0 -2.61c0,-21.68 -17.64,-39.32 -39.31,-39.32l-260.59 -0c-21.68,0.01 -39.32,17.64 -39.32,39.32l0 204.37c0,12.92 10.51,23.43 23.42,23.43l60.41 0c4.82,20.8 23.46,36.37 45.71,36.37 22.25,0 40.89,-15.57 45.71,-36.37l146.69 0 17.28 0 62.31 0c4.82,20.8 23.46,36.37 45.71,36.37 22.25,0 40.89,-15.57 45.71,-36.37l8.84 0c12.28,0 22.27,-9.99 22.27,-22.27l0 -85.14c-0.01,-5.46 -2.01,-10.71 -5.64,-14.8zm-22.25 0.98l-100.6 0c-1.96,0 -3.55,-1.6 -3.55,-3.55l0 -45.33c0,-1.96 1.59,-3.55 3.55,-3.55l53.99 -0 46.61 52.43zm-456.86 -128.6l260.59 0c12.15,0 22.03,9.89 22.03,22.04l0 2.61 0 129.98 -304.66 0 0 -132.58c0,-12.15 9.89,-22.04 22.04,-22.04zm90.22 268.93c-16.36,0 -29.68,-13.31 -29.68,-29.68 0,-16.37 13.32,-29.68 29.68,-29.68 16.36,0 29.68,13.31 29.68,29.68 0,16.37 -13.31,29.68 -29.68,29.68zm46.42 -36.38c-3.27,-22.72 -22.81,-40.25 -46.42,-40.25 -23.61,0 -43.15,17.53 -46.42,40.25l-59.69 0c-3.39,0 -6.15,-2.76 -6.15,-6.16l0 -54.51 304.66 0 0 60.66 -145.98 0 0 0.01zm271.28 36.38c-16.37,0 -29.68,-13.31 -29.68,-29.68 0,-16.37 13.31,-29.68 29.68,-29.68 16.37,0 29.68,13.31 29.68,29.68 0,16.37 -13.32,29.68 -29.68,29.68zm54.55 -36.38l-8.13 0c-3.27,-22.72 -22.81,-40.25 -46.42,-40.25 -23.61,0 -43.15,17.53 -46.42,40.25l-61.59 0 0 -190.64 77.66 0c1.42,0 2.78,0.61 3.73,1.68l13.6 15.3 -38.63 0c-11.48,0 -20.82,9.34 -20.82,20.82l0 45.33c0,11.48 9.34,20.83 20.82,20.83l111.2 0 0 81.69c0.01,2.76 -2.23,5 -4.99,5z"/>
  </g>
 </g>
</svg>
