<?xml version="1.0" encoding="UTF-8"?>
<!DOCTYPE svg PUBLIC "-//W3C//DTD SVG 1.1//EN" "http://www.w3.org/Graphics/SVG/1.1/DTD/svg11.dtd">
<!-- Creator: CorelDRAW 2020 -->
<svg xmlns="http://www.w3.org/2000/svg" xml:space="preserve" width="84.6667mm" height="84.6667mm" version="1.1" style="shape-rendering:geometricPrecision; text-rendering:geometricPrecision; image-rendering:optimizeQuality; fill-rule:evenodd; clip-rule:evenodd"
viewBox="0 0 553.05 553.05"
 xmlns:xlink="http://www.w3.org/1999/xlink"
 xmlns:xodm="http://www.corel.com/coreldraw/odm/2003">
 <defs>
  <style type="text/css">
   <![CDATA[
    .fil0 {fill:none}
    .fil2 {fill:#F90A10}
    .fil1 {fill:black;fill-rule:nonzero}
   ]]>
  </style>
 </defs>
 <g id="Layer_x0020_1">
  <metadata id="CorelCorpID_0Corel-Layer"/>
  <g id="_743294416">
   <rect class="fil0" x="-0" y="-0" width="553.05" height="553.05"/>
   <path class="fil1" d="M288.21 268.72l0 201.31c10.89,-5.57 34.02,-17.81 58.97,-31.11 38.22,-20.39 80.81,-43.35 89.81,-48.49l0.3 -0.15 1.32 -0.63c9.1,-4.3 13.54,-6.41 15.24,-9.53 1.74,-3.2 1.73,-8.84 1.71,-19.86 -0.01,-5.04 -0.02,1.63 -0.02,-4.09l0 -171.61c-12.92,6.19 -47.26,23.44 -80.07,39.92 -30.33,15.23 -59.37,29.82 -68.99,34.4l-2.05 1.01c-5.03,2.45 -14.58,7.12 -16.22,8.83zm-8.43 208.08l0 -209.73 0.23 -0.69c1.57,-4.71 14.28,-10.91 20.74,-14.07l2.12 -1.04c10.87,-5.18 39.24,-19.42 68.86,-34.3 40.81,-20.5 83.98,-42.18 87.02,-42.95l5.24 -1.31 0 183.46c0,8.6 -0.02,1.64 -0.01,4.09 0.03,12.43 0.04,18.8 -2.73,23.87 -3.02,5.54 -8.28,8.03 -19.03,13.12l-1.11 0.53c-8.81,5.03 -51.4,27.98 -89.95,48.54 -31.72,16.92 -60.63,32.17 -65.45,34.31l-5.91 2.63 0 -6.47zm-168.93 -311.06l1.63 0.85c2.14,1.11 4.21,2.2 5.8,3.21 2.99,1.32 8.84,4.32 15.32,7.65 11.27,5.79 23.82,13.06 24.44,12.98l161.05 -81.68 0.35 -0.12c2.82,-0.94 4.93,-1.96 6.99,-2.98 0.23,-0.2 0.46,-0.37 0.68,-0.52 -4.13,-2.15 -9.13,-4.93 -14.42,-7.88 -14.31,-7.96 -30.88,-17.18 -35.58,-17.18l-0.3 0 -0.4 -0.07c-3.15,-0.52 -11.44,3.81 -18.45,7.47 -3.95,2.06 -7.53,3.93 -10.2,4.88 -9.6,5.01 -20.44,11 -31.57,17.14 -17.78,9.81 -36.31,20.02 -54.27,28.65l-51.06 27.58zm-2.26 8.33c-3.53,-1.84 -7.23,-3.77 -9.08,-5.61l-4 -4 62.41 -33.7 0.18 -0.08c17.47,-8.38 36.12,-18.67 54.02,-28.54 10.88,-6 21.48,-11.85 32.01,-17.34l0.29 -0.15 0.33 -0.11c2.04,-0.68 5.49,-2.48 9.31,-4.48 7.96,-4.16 17.35,-9.06 23.28,-8.38 7.01,0.23 24.38,9.9 39.42,18.26 8.62,4.8 16.44,9.14 20.49,10.76l5.91 2.36 -5.94 5.95 -0.35 0.23c-0.84,0.56 -1.6,0.95 -2.28,1.21 -0.79,0.66 -1.5,1.02 -2.2,1.37l-0.01 -0.01c-0.26,0.13 -0.52,0.26 -0.61,0.36l-0.48 0.48 -0.65 0.33 0 0.02c-2.3,1.15 -4.6,2.3 -8.21,3.53l-160.62 81.46 -0.02 0c-3.39,1.7 -18.94,-6.29 -32.03,-13.02 -6.51,-3.35 -12.36,-6.35 -15.15,-7.55l-0.37 -0.16 -0.31 -0.21c-1.16,-0.77 -3.22,-1.85 -5.35,-2.96zm114.45 48.02c7.44,4.06 19.6,10.52 30.29,15.97 9.81,5 18.2,9.08 20,9.44l0.39 0.08 0.43 0.19c4.25,1.82 13.3,-2.95 20.52,-6.75 2.58,-1.36 4.95,-2.61 7.03,-3.51 5.09,-2.83 9.96,-5.4 14.88,-7.86 4.82,-2.41 9.68,-4.7 14.85,-7 9.76,-5.17 19.26,-10.06 28.93,-14.97 8.49,-4.31 18.7,-9.41 29.53,-14.83 1.96,-1.2 9.37,-4.96 18.39,-9.54 11.71,-5.94 26.2,-13.3 33.95,-17.56l-50.82 -27.45c-3.73,-1.04 -18.62,7.96 -24.76,11.67l-1.32 0.79 -0.36 0.16c-5.07,2.25 -9.89,4.52 -14.75,6.95 -4.77,2.39 -9.6,4.95 -14.77,7.82l-0.08 0.05c-9.81,5.19 -19.91,10.1 -30,15 -10.01,4.86 -20.01,9.72 -29.74,14.87 -9.59,5.07 -19.67,10.26 -29.95,15.4 -7.6,3.8 -15.18,7.51 -22.62,11.07zm26.47 23.48c-16.13,-8.22 -35.76,-18.84 -37.93,-20.29l-6.2 -4.13 6.76 -3.18c9.76,-4.59 19.78,-9.46 29.77,-14.45 9.82,-4.91 19.85,-10.07 29.79,-15.33 9.81,-5.19 19.9,-10.1 30,-15 10.01,-4.86 20.02,-9.72 29.74,-14.87 5.14,-2.85 10.05,-5.45 15.02,-7.93 4.79,-2.39 9.62,-4.67 14.75,-6.96l1.09 -0.66c7.28,-4.4 25.06,-15.15 32.41,-12.21l0.24 0.1c20.84,11.31 41.73,22.54 62.6,33.81l-4 4c-2.67,2.66 -24.8,13.9 -41.47,22.36 -9.23,4.68 -16.73,8.49 -17.74,9.17l-0.2 0.13 -0.26 0.13c-9.77,4.89 -19.01,9.5 -29.71,14.93 -9.58,4.86 -19.03,9.73 -28.8,14.9l-0.26 0.11c-5.07,2.25 -9.89,4.52 -14.75,6.95 -4.77,2.39 -9.6,4.94 -14.77,7.82l-0.22 0.12 -0.17 0.07c-1.79,0.77 -4.08,1.97 -6.58,3.29 -8.65,4.56 -19.45,10.25 -27.34,7.21 -3.1,-0.85 -11.85,-5.06 -21.74,-10.1zm15.38 224.59l1.1 -201 -55.9 -27.95 0 62.13c0,1.18 0.06,2.24 0.12,3.36 0.24,4.64 0.53,10.08 -1.73,14.6l-0.19 0.38 -0.29 0.36c-5.59,6.99 -11.62,5.38 -17.6,0.6 -3.04,-2.43 -5.92,-5.67 -8.67,-8.78 -3.14,-3.54 -6.09,-6.87 -7.83,-7.55 -3.02,-0.37 -5.14,0.07 -7.35,0.54 -3.12,0.66 -6.38,1.34 -11.73,0.67l-0.87 -0.11 -0.78 -0.47c-6.79,-4.07 -6.1,-27.39 -5.66,-41.94 0.08,-2.82 0.16,-5.26 0.16,-7.62l0 -48.1c-6.2,-3.39 -22.36,-11.71 -35.79,-18.29 -5.78,-2.83 -10.95,-5.33 -14.37,-6.9l0 172.09 -0.05 6.88c-0.15,18.32 -0.16,19.15 18.39,28.43l0.06 0.03c25.32,12.66 52.94,26.47 78.19,40.25l0.25 0.14 0.18 0.13c3.22,2.3 16.67,9.73 31.41,17.66 14.8,7.95 30.75,16.32 38.96,20.48zm9.51 -203.57l-1.18 216.03 -5.49 -1.83c-2.19,-0.73 -25.28,-12.68 -45.79,-23.7 -14.72,-7.91 -28.27,-15.41 -32.11,-18.08 -25.19,-13.73 -52.58,-27.43 -77.69,-39.98l-0.06 -0.03c-23.24,-11.62 -23.23,-12.68 -23.04,-36 0.01,-1.13 0.02,-2.28 0.02,-6.81l0 -182.28 4.22 0c2.07,0 11.43,4.23 22.27,9.55 15.64,7.66 34.98,17.69 38.47,19.78l2.06 1.23 0 52.92c0,1.5 -0.09,4.44 -0.19,7.85 -0.35,11.93 -0.91,30.64 1.17,34.04 3.33,0.26 5.59,-0.21 7.76,-0.67 3.04,-0.64 5.95,-1.25 10.61,-0.59l0.31 0.04 0.25 0.07c4.04,1.15 7.91,5.52 12.02,10.15 2.54,2.86 5.18,5.85 7.61,7.79 2.09,1.67 4.05,2.48 5.52,1.04 1.04,-2.54 0.83,-6.55 0.65,-9.99 -0.08,-1.44 -0.15,-2.8 -0.15,-3.79l0 -75.73 72.76 36.38 -0.01 2.6z"/>
   <g>
    <path class="fil2" d="M267.35 538.28c62.48,3.23 122.81,-18.31 170.21,-54.94 7.54,-5.39 11.85,-9.7 17.24,-16.16 3.23,-2.15 5.39,-4.31 8.62,-7.54 2.15,-3.23 5.39,-5.39 7.54,-8.62 33.4,-40.94 53.86,-76.49 63.56,-131.43 1.08,-7.54 1.08,-24.78 3.23,-30.16l0 -22.62c-2.15,-4.31 -2.15,-22.62 -3.23,-30.16 -2.15,-8.62 -3.23,-17.24 -5.39,-26.93 -5.39,-17.24 -10.77,-32.32 -18.31,-47.4 -18.31,-36.63 -35.55,-57.1 -64.64,-82.95 -9.69,-8.62 -17.24,-14 -28.01,-20.47 -11.85,-8.62 -28.01,-16.16 -43.09,-22.62 -31.24,-12.93 -72.18,-22.62 -109.88,-19.39 -76.49,2.15 -146.51,40.94 -191.76,95.88 -4.31,6.46 -18.31,20.47 -7.54,23.7 6.46,2.15 9.7,-4.31 12.93,-8.62 3.23,-4.31 6.46,-8.62 9.7,-12.93 2.15,-2.15 3.23,-3.23 5.39,-5.39 22.62,-23.7 43.09,-39.86 72.18,-54.94 43.09,-21.55 101.26,-31.24 155.13,-20.47 95.88,17.24 168.06,87.26 192.83,173.44 15.08,50.63 12.93,110.96 -6.46,158.36 -34.47,88.34 -112.04,149.74 -207.92,158.36 -40.94,4.31 -80.8,-2.15 -118.5,-17.24 -10.77,-4.31 -28.01,-15.08 -32.32,-12.93 -4.31,5.39 -4.31,9.7 2.15,12.93 14,7.54 28.01,14 44.17,18.31 22.62,7.54 45.25,12.93 72.18,12.93z"/>
    <path class="fil2" d="M61.59 139.69c-6.46,-10.77 -3.23,-53.86 -18.31,-40.94 -4.31,4.31 0,19.39 1.08,25.85 4.31,21.55 4.31,31.24 32.32,26.93 5.39,-1.08 22.62,-3.23 25.85,-5.39 4.31,-2.15 4.31,-7.54 1.08,-9.7 -6.46,-5.39 -29.09,5.39 -42.01,3.23z"/>
    <path class="fil2" d="M15.26 287.27l0 6.46c2.15,5.39 0,14 2.15,20.47 3.23,5.39 11.85,5.39 12.93,-3.23 0,-4.31 0,-25.85 -6.46,-26.93 -5.39,-1.08 -6.46,1.08 -8.62,3.23z"/>
    <path class="fil2" d="M104.68 467.18c4.31,-8.62 -2.15,-11.85 -6.46,-17.24 -3.23,-3.23 -9.7,-14 -17.24,-8.62 -6.46,5.39 4.31,14 6.46,17.24 5.39,5.39 8.62,10.77 17.24,8.62z"/>
    <path class="fil2" d="M56.2 406.85c-6.46,4.31 -1.08,9.69 4.31,17.24 4.31,7.54 8.62,15.08 15.08,10.77 7.54,-4.31 -1.08,-12.93 -4.31,-17.24 -3.23,-4.31 -7.54,-16.16 -15.08,-10.77z"/>
    <path class="fil2" d="M24.96 327.13c-6.46,2.15 -4.31,7.54 -1.08,19.39 2.15,5.39 4.31,16.16 11.85,11.85 6.46,-2.15 2.15,-12.93 0,-18.31 -1.08,-7.54 -2.15,-16.16 -10.77,-12.93z"/>
    <path class="fil2" d="M46.5 399.31c11.85,1.08 9.7,-7.54 5.39,-15.08 -2.15,-5.39 -5.39,-16.16 -9.7,-17.24 -4.31,0 -7.54,2.15 -7.54,5.39 -2.15,4.31 8.62,22.62 11.85,26.93z"/>
    <path class="fil2" d="M138.07 494.11c5.39,-9.69 -3.23,-12.93 -16.16,-21.55 -2.15,-2.15 -6.46,-4.31 -8.62,-1.08 -9.7,6.46 7.54,16.16 15.08,20.47 4.31,3.23 4.31,4.31 9.7,2.15z"/>
   </g>
  </g>
 </g>
</svg>
